<svg width="352" height="62" viewBox="0 0 352 62" fill="none" xmlns="http://www.w3.org/2000/svg">
<path d="M349.204 32.8513C348.462 32.8513 347.863 32.9368 347.407 33.1079C346.951 33.2791 346.523 33.4502 346.124 33.6213C345.724 33.7924 345.325 33.9635 344.926 34.1346C344.527 34.2487 344.042 34.2772 343.471 34.2201C342.103 34.049 341.39 33.5357 341.333 32.6802C341.276 31.7676 341.475 30.741 341.931 29.6003C342.445 28.4025 343.015 27.2618 343.643 26.1781C344.327 25.0374 344.726 24.1819 344.84 23.6116C344.954 22.8131 344.641 22.1286 343.899 21.5583C343.215 20.9879 342.302 20.7598 341.162 20.8739C340.819 20.9309 340.477 21.0735 340.135 21.3016C339.793 21.5298 339.365 21.7009 338.852 21.8149C338.11 21.986 337.426 22.0716 336.798 22.0716C336.228 22.0716 335.658 22.2142 335.087 22.4994C334.46 22.8416 333.775 23.4405 333.034 24.296C332.35 25.0945 331.665 26.007 330.981 27.0337C330.296 28.0603 329.669 29.1155 329.099 30.1991C328.528 31.2828 328.1 32.2524 327.815 33.1079C327.53 33.7924 327.359 34.5338 327.302 35.3323C327.302 36.0738 327.245 36.8438 327.131 37.6423C326.903 38.6119 326.617 39.5244 326.275 40.38C325.933 41.2355 325.705 41.977 325.591 42.6043C325.591 42.9466 325.648 43.3173 325.762 43.7165C325.876 44.1158 325.876 44.5436 325.762 44.9998C325.762 45.6272 325.648 46.2261 325.42 46.7964C325.249 47.3098 325.192 47.766 325.249 48.1653C325.249 48.5075 325.334 48.9638 325.505 49.5341C325.733 50.0475 325.962 50.5323 326.19 50.9885C326.589 52.0152 327.102 53.0133 327.73 53.9829C328.414 54.8955 329.412 55.6084 330.724 56.1217C331.694 56.4639 332.92 56.6636 334.403 56.7206C335.943 56.7776 337.112 56.7491 337.91 56.6351C339.165 56.4639 340.22 56.0362 341.076 55.3518C341.931 54.6103 343.044 54.0114 344.413 53.5551C344.755 53.2129 345.04 52.8422 345.268 52.443C345.553 52.0437 345.838 51.673 346.124 51.3308C346.409 50.9885 346.722 50.7034 347.065 50.4752C347.464 50.1901 347.949 50.0475 348.519 50.0475C348.747 50.7889 348.719 51.4163 348.434 51.9296C348.148 52.4429 347.778 52.9563 347.321 53.4696C346.865 53.9259 346.38 54.4107 345.867 54.924C345.411 55.3803 345.097 55.9221 344.926 56.5495C343.785 57.0058 342.759 57.6047 341.846 58.3461C340.933 59.0305 339.907 59.6009 338.766 60.0572C338.139 59.829 337.54 59.772 336.969 59.8861C336.399 59.9431 335.829 60.0572 335.258 60.2283C334.745 60.3994 334.232 60.5705 333.718 60.7416C333.262 60.9127 332.806 60.9983 332.35 60.9983C331.551 60.9412 330.924 60.8272 330.467 60.656C330.068 60.4279 329.355 60.3424 328.329 60.3994C327.359 60.5135 326.332 60.6846 325.249 60.9127C324.735 60.5705 324.336 60.0001 324.051 59.2016C323.652 59.0305 323.366 58.945 323.195 58.945C323.024 58.945 322.768 58.888 322.425 58.7739C321.285 57.4621 320.201 55.8936 319.174 54.0685C318.148 52.1863 317.52 50.0475 317.292 47.652C317.235 47.1957 317.264 46.7109 317.378 46.1976C317.549 45.6272 317.577 45.1139 317.463 44.6576C317.463 44.3724 317.406 44.1158 317.292 43.8876C317.178 43.6595 317.121 43.4028 317.121 43.1177C317.235 42.3192 317.492 41.3781 317.891 40.2944C318.347 39.1537 318.633 38.0986 318.747 37.129C318.804 36.7297 318.775 36.3305 318.661 35.9312C318.604 35.532 318.633 35.1897 318.747 34.9046C318.975 34.3912 319.288 33.992 319.688 33.7068C320.087 33.3646 320.429 32.9654 320.714 32.5091C321.399 31.5395 321.912 30.5414 322.254 29.5147C322.596 28.431 322.996 27.4329 323.452 26.5204C325.163 24.9234 326.988 23.4975 328.927 22.2427C330.924 20.9879 332.891 19.7046 334.831 18.3928C336.713 17.9936 338.709 17.908 340.819 18.1362C342.93 18.3073 344.954 18.4213 346.894 18.4784C348.091 19.0487 349.089 19.8472 349.888 20.8739C350.743 21.8435 351.314 22.9842 351.599 24.296C351.884 25.5508 351.827 26.9196 351.428 28.4025C351.086 29.8284 350.344 31.3113 349.204 32.8513Z" fill="black"/>
<path d="M307.633 50.3903C308.432 50.9606 308.888 51.645 309.002 52.4435C309.059 53.185 308.888 53.9265 308.489 54.6679C308.318 55.0672 308.118 55.4664 307.89 55.8657C307.662 56.2079 307.377 56.5786 307.035 56.9778C306.692 57.3771 306.35 57.7763 306.008 58.1756C305.666 58.5178 305.352 58.8885 305.067 59.2878C304.611 59.4018 304.183 59.5444 303.784 59.7155C303.384 59.8296 302.957 59.9722 302.5 60.1433C301.645 60.5996 300.789 60.7707 299.934 60.6566C298.964 60.5426 298.194 60.2574 297.624 59.8011C296.825 59.2878 296.112 58.803 295.485 58.3467C295.029 57.9474 294.515 57.5767 293.945 57.2345C293.432 56.8923 292.861 56.7782 292.234 56.8923C291.778 57.0064 291.321 57.1775 290.865 57.4056C290.409 57.6338 289.952 57.8049 289.496 57.9189L287.443 58.4322C285.846 58.8885 284.277 59.2878 282.737 59.63C281.198 59.9722 279.629 60.0863 278.032 59.9722C277.234 59.9152 276.492 59.687 275.808 59.2878C275.523 59.1167 275.009 58.8885 274.268 58.6034C273.583 58.2611 273.156 57.976 272.984 57.7478C272.87 57.6908 272.756 57.6052 272.642 57.4912C272.528 57.3771 272.386 57.3486 272.214 57.4056C271.872 56.9493 271.53 56.5216 271.188 56.1223C270.903 55.666 270.589 55.2383 270.247 54.839C269.905 54.4398 269.562 54.0405 269.22 53.6413C268.878 53.242 268.536 52.8428 268.193 52.4435C268.022 51.9872 267.908 51.5024 267.851 50.9891C267.851 50.4758 267.851 49.9625 267.851 49.4492C267.908 48.4796 267.623 47.624 266.996 46.8826C267.167 46.4833 267.167 46.2267 266.996 46.1126L267.252 44.9149C266.967 44.3445 266.882 43.5745 266.996 42.6049C267.167 41.8064 267.138 41.0365 266.91 40.295C266.967 39.8387 266.996 39.4395 266.996 39.0972C267.053 38.698 267.11 38.2988 267.167 37.8995C267.224 37.5003 267.281 37.0725 267.338 36.6162C267.452 36.1599 267.595 35.7036 267.766 35.2474C267.652 35.0763 267.68 34.9907 267.851 34.9907C267.908 34.9337 267.965 34.9051 268.022 34.9051C268.079 34.8481 268.136 34.7911 268.193 34.734C268.022 33.9926 268.165 33.3652 268.621 32.8519C268.849 32.5667 269.049 32.31 269.22 32.0819C269.391 31.8538 269.562 31.5971 269.733 31.3119C269.79 31.2549 269.819 31.1408 269.819 30.9697C269.705 30.9127 269.733 30.7986 269.905 30.6275C269.905 30.5705 269.933 30.5134 269.99 30.4564C270.104 30.3993 270.19 30.3423 270.247 30.2853C270.475 30.1712 270.589 30.0571 270.589 29.9431C270.589 29.772 270.589 29.6864 270.589 29.6864C270.646 29.6294 270.674 29.5153 270.674 29.3442C270.846 29.1161 271.102 28.8309 271.444 28.4887C271.616 28.3746 271.758 28.232 271.872 28.0609C272.043 27.8898 272.186 27.7472 272.3 27.6331C272.414 27.405 272.471 27.2054 272.471 27.0343C272.585 26.7491 272.671 26.578 272.728 26.5209C272.785 26.4639 272.813 26.4069 272.813 26.3498C272.87 26.2928 272.927 26.2358 272.984 26.1787L273.327 25.8365C273.669 25.4943 273.954 25.2662 274.182 25.1521C274.296 25.038 274.41 24.8954 274.524 24.7243C274.638 24.5532 274.753 24.3536 274.867 24.1255C275.323 23.8973 276.064 23.4125 277.091 22.6711C278.061 22.0437 278.774 21.4448 279.23 20.8744C279.344 20.7033 279.458 20.5607 279.572 20.4467C279.686 20.3326 279.772 20.247 279.829 20.19C280 20.0189 280.313 19.8193 280.77 19.5911C280.884 19.4771 281.026 19.363 281.198 19.2489C281.426 19.0778 281.682 18.9067 281.967 18.7356C282.253 18.5645 282.481 18.3934 282.652 18.2223C282.823 18.0512 283.023 17.8801 283.251 17.709C283.479 17.4808 283.679 17.2812 283.85 17.1101C284.078 16.939 284.277 16.7679 284.449 16.5968C284.905 16.1975 285.39 15.9694 285.903 15.9124C287.329 15.5701 288.47 15.6557 289.325 16.169C289.496 16.112 289.667 16.0835 289.838 16.0835C290.067 16.0264 290.323 15.9694 290.608 15.9124C291.008 15.8553 291.35 15.9409 291.635 16.169C292.262 16.169 292.861 16.1975 293.432 16.2546C294.002 16.2546 294.544 16.2831 295.057 16.3401C295.97 16.4542 296.797 16.7109 297.538 17.1101C297.538 17.1101 297.624 17.1957 297.795 17.3668C297.909 17.4238 298.023 17.5094 298.137 17.6234C298.365 17.7375 298.536 17.7945 298.65 17.7945C298.879 17.7375 299.078 17.7375 299.249 17.7945C299.648 18.0227 299.934 18.2793 300.105 18.5645C300.447 18.9067 300.761 19.1063 301.046 19.1634C301.103 19.2204 301.245 19.2489 301.474 19.2489C301.702 19.2489 301.958 19.2774 302.244 19.3345C302.928 19.4486 303.356 19.4486 303.527 19.3345C303.926 19.2774 304.411 18.9638 304.981 18.3934C305.438 17.766 305.922 17.3382 306.436 17.1101C306.607 16.939 306.892 16.7964 307.291 16.6823L308.061 16.4257C308.517 16.3116 308.945 16.2546 309.344 16.2546C309.801 16.2546 310.2 16.3116 310.542 16.4257C311.113 17.4523 311.227 18.6501 310.884 20.0189C310.77 20.7604 310.571 21.4733 310.286 22.1577C310.057 22.8422 309.772 23.4981 309.43 24.1255C309.316 24.2966 309.202 24.5532 309.088 24.8954C309.088 25.0095 308.974 25.3517 308.746 25.9221C308.575 26.3784 308.346 26.8346 308.061 27.2909C307.947 27.5191 307.833 27.7472 307.719 27.9753C307.662 28.2035 307.605 28.4316 307.548 28.6598C307.377 29.002 307.291 29.3442 307.291 29.6864C307.291 29.9716 307.234 30.2853 307.12 30.6275C306.949 30.7986 306.863 30.9412 306.863 31.0553C306.692 31.2264 306.607 31.3404 306.607 31.3975C306.322 31.8538 306.236 32.3386 306.35 32.8519C306.35 33.1941 306.236 33.6504 306.008 34.2207C305.894 34.3918 305.922 34.4774 306.093 34.4774C306.093 34.4774 306.151 34.5344 306.265 34.6485C305.865 35.7322 305.58 37.044 305.409 38.5839C305.238 40.0098 304.896 41.179 304.382 42.0916C304.325 42.2627 304.268 42.4338 304.211 42.6049C304.211 42.719 304.183 42.8616 304.126 43.0327V42.9471C304.126 43.0612 304.097 43.1753 304.04 43.2894C304.04 43.3464 304.04 43.4319 304.04 43.546C303.755 44.5156 303.527 45.5137 303.356 46.5404C303.185 47.567 302.985 48.5651 302.757 49.5347L302.671 49.6203C302.557 50.2477 302.557 50.761 302.671 51.1602C302.842 51.5595 303.128 51.7591 303.527 51.7591C303.869 51.8161 304.268 51.7591 304.725 51.588C304.953 51.4739 305.181 51.3599 305.409 51.2458C305.637 51.1317 305.894 51.0176 306.179 50.9036C306.407 50.7895 306.635 50.704 306.863 50.6469C307.149 50.5328 307.405 50.4473 307.633 50.3903ZM292.918 47.9948C292.975 47.8807 293.032 47.7951 293.089 47.7381C293.203 47.6811 293.289 47.624 293.346 47.567C293.574 47.3389 293.745 47.1963 293.859 47.1392C293.973 46.9111 294.145 46.5119 294.373 45.9415C294.43 45.5422 294.572 45.086 294.8 44.5726C295.143 43.546 295.485 42.4338 295.827 41.2361C295.941 40.6087 296.055 40.0098 296.169 39.4395C296.34 38.8691 296.455 38.2988 296.512 37.7284C296.626 37.101 296.711 36.5307 296.768 36.0173C296.882 35.447 296.996 34.9051 297.11 34.3918C297.282 33.3652 297.31 32.4241 297.196 31.5686L297.453 30.2853C297.453 29.9431 297.367 29.5438 297.196 29.0875L296.939 27.8042C296.825 27.2909 296.768 27.0343 296.768 27.0343C296.654 26.8632 296.569 26.6065 296.512 26.2643C296.397 26.1502 296.34 25.9506 296.34 25.6654C296.34 25.5513 296.312 25.4373 296.255 25.3232C296.255 25.2091 296.255 25.0951 296.255 24.981C296.141 24.6388 295.97 24.3536 295.742 24.1255C295.627 23.9544 295.513 23.6977 295.399 23.3555C295.399 23.3555 295.399 23.2699 295.399 23.0988C295.399 23.0988 295.399 23.0418 295.399 22.9277C294.601 21.787 293.346 21.2167 291.635 21.2167C290.779 21.1596 289.867 21.1596 288.897 21.2167C287.928 21.2167 286.958 21.2452 285.988 21.3022C285.304 21.7585 284.591 22.3574 283.85 23.0988C283.108 23.8403 282.367 24.4677 281.625 24.981C281.283 25.8936 280.798 26.692 280.171 27.3765C279.886 27.7757 279.601 28.175 279.315 28.5742C279.03 28.9164 278.802 29.2872 278.631 29.6864C278.574 29.7434 278.545 29.9145 278.545 30.1997C278.545 30.3138 278.517 30.3993 278.46 30.4564C278.46 30.5134 278.46 30.5705 278.46 30.6275C278.232 31.0838 278.061 31.3975 277.947 31.5686C277.604 31.9108 277.405 32.1674 277.348 32.3386C277.348 32.5667 277.348 32.6808 277.348 32.6808C277.348 32.8519 277.348 32.9374 277.348 32.9374C277.291 32.9945 277.234 33.023 277.177 33.023C277.177 33.023 277.148 33.0515 277.091 33.1085C277.034 33.1656 277.005 33.2226 277.005 33.2796C277.005 33.2796 276.977 33.3082 276.92 33.3652C276.806 33.6504 276.692 33.907 276.578 34.1352C276.521 34.3633 276.435 34.5915 276.321 34.8196C276.207 35.2759 275.979 35.6751 275.637 36.0173C275.58 36.1314 275.551 36.217 275.551 36.274C275.551 36.331 275.494 36.4166 275.38 36.5307C275.38 36.7588 275.408 36.9014 275.465 36.9584C275.18 37.3577 274.981 37.7569 274.867 38.1562C274.753 38.5554 274.638 38.9547 274.524 39.3539C274.524 39.7532 274.496 40.1524 274.439 40.5517C274.439 40.8939 274.439 41.2646 274.439 41.6638C274.439 42.0631 274.439 42.4338 274.439 42.776C274.439 43.1182 274.467 43.489 274.524 43.8882C274.524 44.2875 274.524 44.6582 274.524 45.0004C274.581 45.3426 274.553 45.6848 274.439 46.0271C274.439 46.4263 274.61 46.74 274.952 46.9681C275.294 47.1963 275.494 47.51 275.551 47.9092C275.608 48.1374 275.637 48.3655 275.637 48.5936C275.694 48.7647 275.722 48.9929 275.722 49.2781C275.665 49.5632 275.694 49.991 275.808 50.5614C275.922 51.0176 276.121 51.4454 276.407 51.8447C276.578 52.0158 276.692 52.2154 276.749 52.4435C276.806 52.6146 276.863 52.8143 276.92 53.0424C277.433 53.2705 277.804 53.5557 278.032 53.8979C278.374 54.2972 278.774 54.6109 279.23 54.839C279.515 54.8961 279.857 54.9531 280.256 55.0101C280.656 55.0672 281.14 55.1242 281.711 55.1812C282.281 55.2383 282.823 55.2668 283.336 55.2668C283.85 55.2097 284.363 55.1242 284.876 55.0101C284.99 54.9531 285.076 54.9246 285.133 54.9246C285.247 54.8675 285.361 54.782 285.475 54.6679C285.589 54.5538 285.675 54.4683 285.732 54.4113C285.789 54.3542 285.874 54.2972 285.988 54.2401C287.471 53.7839 288.612 53.128 289.411 52.2724C289.924 51.8161 290.409 51.3599 290.865 50.9036C291.321 50.4473 291.806 49.991 292.319 49.5347C292.376 49.4207 292.405 49.3066 292.405 49.1925C292.405 49.0214 292.434 48.8788 292.491 48.7647C292.605 48.6507 292.662 48.5366 292.662 48.4225C292.719 48.2514 292.804 48.1088 292.918 47.9948Z" fill="black"/>
<path d="M253.143 59.8015H249.635C249.179 59.7445 248.78 59.6304 248.437 59.4593C248.095 59.2882 247.753 59.06 247.411 58.7749C247.012 58.4897 246.612 58.2045 246.213 57.9193C245.871 57.6341 245.557 57.2349 245.272 56.7216C245.101 56.2653 244.987 55.8375 244.93 55.4383C244.873 55.039 244.844 54.5828 244.844 54.0694C244.73 53.0998 244.759 52.2158 244.93 51.4173C245.101 51.018 245.186 50.6473 245.186 50.3051C245.186 50.077 245.158 49.9344 245.101 49.8773C245.044 49.7633 245.044 49.5636 245.101 49.2785C245.215 48.8222 245.301 48.3374 245.358 47.8241C245.472 47.3107 245.557 46.7974 245.614 46.2841C245.728 45.5997 245.842 44.9153 245.956 44.2308C246.07 43.4894 246.185 42.7194 246.299 41.9209C246.413 41.1794 246.527 40.438 246.641 39.6965C246.755 38.898 246.926 38.071 247.154 37.2155C247.325 36.417 247.468 35.647 247.582 34.9055C247.753 34.1641 247.924 33.4511 248.095 32.7667C248.437 31.3408 248.609 30.0575 248.609 28.9168C248.609 27.662 248.409 26.6354 248.01 25.8369C247.496 25.0384 246.641 24.3825 245.443 23.8692C244.873 23.9833 244.388 24.0688 243.989 24.1259C243.589 24.1259 243.247 24.1829 242.962 24.297C242.164 24.4681 241.194 24.5536 240.053 24.5536C239.597 25.0099 239.141 25.4662 238.684 25.9225C238.285 26.3788 237.857 26.835 237.401 27.2913C236.945 27.8046 236.489 28.318 236.032 28.8313C235.576 29.3446 235.177 29.8579 234.835 30.3712C234.036 31.4549 233.323 32.5956 232.696 33.7934C232.125 35.1052 231.84 36.3885 231.84 37.6432C230.928 38.841 230.414 40.1813 230.3 41.6642C230.243 42.3487 230.101 43.0901 229.872 43.8886C229.701 44.6871 229.473 45.5141 229.188 46.3697C228.903 46.94 228.618 47.3678 228.332 47.653C227.933 48.1092 227.705 48.537 227.648 48.9363C227.192 50.2481 227.049 51.5599 227.22 52.8717C226.935 53.4991 226.678 54.155 226.45 54.8394C226.222 55.4668 225.994 56.0942 225.766 56.7216C225.538 57.5201 225.196 58.3186 224.739 59.1171C224.568 59.2882 224.426 59.4878 224.311 59.7159C224.197 59.83 224.112 59.9156 224.055 59.9726C223.998 59.9726 223.912 60.0011 223.798 60.0582C223.684 60.1722 223.57 60.2578 223.456 60.3148C223.342 60.3148 223.228 60.3719 223.114 60.4859C222.829 60.6 222.543 60.657 222.258 60.657C222.03 60.7141 221.773 60.7996 221.488 60.9137H219.692C219.521 60.8567 219.321 60.7996 219.093 60.7426C218.922 60.7426 218.751 60.6855 218.579 60.5715C218.465 60.4574 218.351 60.3718 218.237 60.3148C218.123 60.2578 217.981 60.1722 217.809 60.0582C217.695 59.9441 217.581 59.83 217.467 59.7159C217.41 59.6019 217.353 59.4878 217.296 59.3737C217.182 59.1456 217.097 58.946 217.039 58.7749C216.982 58.6038 216.925 58.4041 216.868 58.176C216.811 57.8908 216.754 57.6056 216.697 57.3205C216.697 57.0353 216.726 56.7501 216.783 56.4649C216.783 56.1798 216.811 55.9516 216.868 55.7805H216.954C217.981 54.3546 218.751 52.8147 219.264 51.1606C219.492 50.3621 219.692 49.5351 219.863 48.6796C220.034 47.8241 220.233 46.9685 220.462 46.113C220.576 45.2575 220.718 44.4019 220.889 43.5464C221.06 42.6909 221.203 41.8353 221.317 40.9798C221.545 40.1243 221.802 39.2973 222.087 38.4988C222.429 37.6432 222.829 36.8162 223.285 36.0177C223 35.3333 222.914 34.5919 223.028 33.7934C223.142 32.1964 223.484 30.6279 224.055 29.0879C224.226 28.6317 224.369 28.1183 224.483 27.548C224.597 26.9206 224.34 26.5784 223.713 26.5213C223.085 26.5213 222.429 26.6639 221.745 26.9491C221.06 27.2343 220.433 27.2058 219.863 26.8636C219.578 26.5784 219.463 26.2076 219.521 25.7514C219.578 25.238 219.663 24.7532 219.777 24.297C219.891 23.8407 220.119 23.3844 220.462 22.9281C220.804 22.4718 221.118 22.0155 221.403 21.5593C221.688 21.103 222.087 20.6752 222.6 20.276C223.171 19.8767 223.713 19.5915 224.226 19.4204C224.853 19.1923 225.481 19.0212 226.108 18.9071C226.735 18.736 227.363 18.6219 227.99 18.5649C228.447 18.5649 228.903 18.5364 229.359 18.4793C229.872 18.4223 230.357 18.4508 230.814 18.5649C231.27 18.6219 231.669 18.736 232.011 18.9071C232.353 19.0782 232.696 19.2493 233.038 19.4204C233.836 19.7056 234.407 20.1049 234.749 20.6182C235.148 21.0745 235.576 21.6163 236.032 22.2437C236.945 21.8444 237.8 21.4167 238.599 20.9604C239.454 20.5041 240.338 20.0763 241.251 19.6771C242.164 19.3349 243.076 19.0212 243.989 18.736C244.958 18.3938 245.928 18.0801 246.898 17.7949C247.696 17.966 248.466 18.1371 249.207 18.3082C250.006 18.4223 250.804 18.5364 251.603 18.6505C252.344 18.7645 253.029 18.9356 253.656 19.1638C254.341 19.3919 254.94 19.6771 255.453 20.0193C255.681 20.6467 255.938 21.2456 256.223 21.8159C256.508 22.3292 256.793 22.8711 257.078 23.4414C257.763 24.5821 258.048 25.894 257.934 27.3769C257.934 27.8902 257.791 28.4035 257.506 28.9168C257.392 29.202 257.278 29.4872 257.164 29.7724C257.107 30.0575 257.021 30.3427 256.907 30.6279C256.736 31.1982 256.622 31.7686 256.565 32.3389C256.508 32.8523 256.479 33.3941 256.479 33.9645C256.422 34.5348 256.394 35.0766 256.394 35.59C256.394 36.1033 256.337 36.6166 256.223 37.1299C256.166 37.5292 255.995 37.9855 255.709 38.4988C255.367 38.9551 255.196 39.3828 255.196 39.7821C255.139 40.1243 255.196 40.495 255.367 40.8943C255.538 41.1794 255.567 41.5216 255.453 41.9209C255.282 42.6624 254.997 43.4038 254.597 44.1453C254.084 44.9438 253.77 45.7708 253.656 46.6263C253.599 47.4248 253.428 48.2233 253.143 49.0218C253.029 49.4781 252.858 49.9629 252.63 50.4762C252.458 50.9325 252.43 51.3888 252.544 51.8451C252.658 52.4724 253.029 52.8432 253.656 52.9572C254.284 53.0713 254.854 52.9572 255.367 52.615C255.995 52.1588 256.622 51.7025 257.249 51.2462C257.877 50.7899 258.561 50.5618 259.303 50.5618C259.759 50.6188 260.016 50.7899 260.073 51.0751C260.187 51.3603 260.301 51.674 260.415 52.0162C260.586 52.4724 260.729 52.8432 260.843 53.1284C260.957 53.4135 260.9 53.8128 260.672 54.3261C260.158 56.2083 259.018 57.6912 257.249 58.7749C256.793 59.06 256.394 59.2882 256.052 59.4593C255.709 59.6304 255.31 59.7445 254.854 59.8015H254.255H253.143Z" fill="black"/>
<path d="M201.617 54.0681C202.415 54.3532 202.815 54.838 202.815 55.5225C202.643 55.8076 202.472 56.0928 202.301 56.378C202.187 56.6632 202.073 56.8913 201.959 57.0624C201.788 57.5187 201.56 57.8894 201.275 58.1746C201.103 58.6309 200.989 58.8876 200.932 58.9446C200.59 59.4009 200.048 59.7716 199.307 60.0568C199.022 60.1708 198.737 60.2564 198.451 60.3134C198.223 60.3705 197.967 60.4275 197.681 60.4845C197.396 60.5416 197.111 60.5701 196.826 60.5701C196.541 60.5701 196.255 60.5986 195.97 60.6557C195.685 60.7127 195.4 60.7412 195.115 60.7412C194.83 60.7982 194.544 60.8838 194.259 60.9979C193.917 60.8268 193.575 60.6842 193.233 60.5701C192.89 60.399 192.577 60.1994 192.292 59.9712C191.721 59.4579 191.464 58.8305 191.522 58.0891C190.837 57.5187 190.124 57.0339 189.383 56.6347C189.212 56.5206 188.955 56.6632 188.613 57.0624C188.328 57.4617 188.042 57.6613 187.757 57.6613H187.672C187.501 57.6613 187.13 57.7754 186.559 58.0035C186.046 58.1746 185.504 58.3742 184.934 58.6024C184.364 58.8305 183.822 59.0587 183.308 59.2868C182.852 59.5149 182.567 59.6575 182.453 59.7146C182.396 59.7146 182.253 59.8001 182.025 59.9712C181.968 60.0283 181.826 60.1138 181.597 60.2279C180.97 60.399 180.2 60.4275 179.287 60.3134C178.432 60.1994 177.719 60.2279 177.149 60.399C176.806 60.2849 176.436 60.1994 176.036 60.1423C175.694 60.0853 175.381 59.9997 175.095 59.8857C174.753 59.7716 174.439 59.6575 174.154 59.5435C173.926 59.3724 173.669 59.2298 173.384 59.1157C173.042 58.8876 172.728 58.7164 172.443 58.6024C172.044 58.4883 171.73 58.3457 171.502 58.1746C171.331 58.0035 171.217 57.8324 171.16 57.6613C171.046 57.3761 170.875 57.1765 170.647 57.0624C170.418 56.7202 170.304 56.5491 170.304 56.5491C170.076 56.435 169.934 56.2354 169.877 55.9502C169.763 55.6651 169.506 55.4084 169.107 55.1803C168.878 54.9521 168.593 54.724 168.251 54.4958C167.909 54.2106 167.652 53.9255 167.481 53.6403C167.31 53.5262 167.196 53.3836 167.139 53.2125C167.139 53.0414 167.11 52.8133 167.053 52.5281C166.768 52.3 166.483 52.0433 166.198 51.7581C165.913 51.473 165.713 51.1878 165.599 50.9026C165.257 50.1041 164.857 49.4482 164.401 48.9349V47.6516C164.458 47.1383 164.373 46.7675 164.145 46.5394C164.202 46.3112 164.23 46.0831 164.23 45.855C164.287 45.6268 164.373 45.3987 164.487 45.1705C164.487 44.8854 164.487 44.6572 164.487 44.4861C164.544 44.258 164.544 44.0583 164.487 43.8872C164.487 43.3739 164.458 43.0602 164.401 42.9462C164.287 42.6039 164.23 42.3473 164.23 42.1762C164.23 42.0051 164.259 41.9195 164.316 41.9195C164.373 41.8625 164.401 41.7769 164.401 41.6629C164.458 41.4347 164.43 41.2066 164.316 40.9784C164.202 40.7503 164.23 40.4651 164.401 40.1229C164.458 39.9518 164.515 39.8092 164.572 39.6951C164.629 39.5811 164.715 39.467 164.829 39.3529C165.114 39.0107 165.2 38.697 165.086 38.4118C165.2 38.1837 165.314 37.9556 165.428 37.7274C165.542 37.4993 165.627 37.2426 165.684 36.9574C165.742 36.6152 165.799 36.3015 165.856 36.0164C165.913 35.7312 165.998 35.446 166.112 35.1608C166.112 34.8756 166.141 34.5905 166.198 34.3053C166.312 34.0201 166.397 33.7635 166.454 33.5353C166.569 33.1361 166.854 32.7653 167.31 32.4231C167.367 32.138 167.396 31.9098 167.396 31.7387C167.453 31.5676 167.481 31.425 167.481 31.3109C167.709 30.8547 167.909 30.598 168.08 30.541C168.422 30.3699 168.679 30.0847 168.85 29.6854C168.964 29.5714 169.021 29.4858 169.021 29.4288C169.021 29.3717 169.05 29.3147 169.107 29.2577C169.107 29.1436 169.107 29.058 169.107 29.001C169.164 28.944 169.192 28.8584 169.192 28.7443L169.705 28.231C169.82 28.174 169.877 28.0599 169.877 27.8888C169.934 27.7747 169.962 27.5751 169.962 27.2899C169.962 27.1759 169.962 27.1188 169.962 27.1188C170.019 27.0618 170.048 26.9762 170.048 26.8622C170.333 26.2918 170.704 25.8926 171.16 25.6644C171.445 25.4933 171.673 25.3222 171.844 25.1511C172.015 24.923 172.215 24.7233 172.443 24.5522C172.5 24.4952 172.529 24.4382 172.529 24.3811C172.529 24.3241 172.586 24.2385 172.7 24.1245C172.871 24.0104 173.014 23.8393 173.128 23.6112C173.185 23.5541 173.242 23.4686 173.299 23.3545C173.413 23.2404 173.47 23.1264 173.47 23.0123C174.154 22.556 174.81 22.1282 175.438 21.729C176.122 21.3297 176.778 20.902 177.405 20.4457C178.09 20.0464 178.746 19.6472 179.373 19.248C180.057 18.8487 180.713 18.4209 181.341 17.9647C181.854 17.8506 182.339 17.7365 182.795 17.6224C183.308 17.4513 183.793 17.3087 184.25 17.1947C184.763 17.0236 185.248 16.881 185.704 16.7669C186.217 16.6528 186.702 16.5388 187.158 16.4247C187.672 16.4817 188.128 16.5103 188.527 16.5103C188.926 16.4532 189.354 16.3677 189.81 16.2536C190.666 16.0825 191.322 16.2251 191.778 16.6814C192.177 16.6243 192.577 16.6243 192.976 16.6814C193.318 16.9095 193.575 17.1091 193.746 17.2802L194.345 17.8791C194.459 17.9932 194.544 18.1072 194.601 18.2213C194.658 18.2783 194.716 18.3639 194.773 18.478C195.115 18.6491 195.457 18.7346 195.799 18.7346C196.198 18.7346 196.484 18.7917 196.655 18.9057C196.883 18.9628 197.082 19.1054 197.254 19.3335C197.482 19.5616 197.681 19.7328 197.852 19.8468C198.309 19.9039 198.851 19.9039 199.478 19.8468C200.162 19.7328 200.619 19.6472 200.847 19.5902C201.246 19.4191 201.645 19.1909 202.045 18.9057C202.216 18.7346 202.387 18.592 202.558 18.478C202.786 18.3069 202.986 18.1358 203.157 17.9647C203.271 17.8506 203.413 17.708 203.585 17.5369C203.756 17.3658 203.984 17.2232 204.269 17.1091C204.554 16.8239 204.982 16.6814 205.552 16.6814C206.237 16.7384 206.807 16.938 207.263 17.2802C207.777 17.5084 208.062 17.9361 208.119 18.5635L207.691 20.7024C207.748 20.8735 207.72 20.959 207.606 20.959C207.377 20.959 207.235 21.016 207.178 21.1301C207.178 21.5864 207.092 22.0997 206.921 22.6701C206.693 23.2975 206.721 23.7252 207.007 23.9534C206.836 24.1245 206.664 24.3241 206.493 24.5522C206.379 24.7233 206.265 24.923 206.151 25.1511C205.98 25.4363 205.837 25.6644 205.723 25.8355C205.609 26.0066 205.438 26.1778 205.21 26.3489C205.153 26.6911 205.067 27.0333 204.953 27.3755C204.839 27.6607 204.754 27.9458 204.697 28.231C204.64 28.5732 204.583 28.8869 204.526 29.1721C204.469 29.4573 204.412 29.771 204.354 30.1132C204.297 30.5695 204.098 31.1113 203.756 31.7387C203.642 32.0239 203.499 32.3091 203.328 32.5942C203.157 32.8794 202.957 33.1646 202.729 33.4498C202.786 33.7349 202.758 34.0201 202.643 34.3053C202.529 34.5334 202.387 34.8186 202.216 35.1608C201.873 35.7312 201.873 36.1875 202.216 36.5297C201.988 36.8719 201.816 37.2426 201.702 37.6419C201.645 38.0411 201.588 38.4689 201.531 38.9252C201.417 39.3814 201.275 39.8092 201.103 40.2085C200.989 40.6077 200.79 40.9499 200.505 41.2351C200.333 42.1477 200.077 42.9747 199.735 43.7161C199.621 44.1154 199.506 44.5146 199.392 44.9139C199.278 45.2561 199.164 45.6268 199.05 46.0261C198.936 46.2542 198.822 46.4824 198.708 46.7105C198.594 46.8816 198.508 47.0812 198.451 47.3094C198.451 47.5375 198.423 47.7656 198.366 47.9938C198.309 48.2219 198.223 48.4786 198.109 48.7638C198.052 49.0489 198.081 49.1345 198.195 49.0204C198.309 48.9064 198.366 49.0204 198.366 49.3626C198.195 49.5337 198.109 49.6763 198.109 49.7904C197.938 49.9615 197.852 50.0756 197.852 50.1326C197.624 50.3608 197.51 50.5889 197.51 50.817C197.567 50.9882 197.624 51.1878 197.681 51.4159C197.795 51.587 197.881 51.7866 197.938 52.0148C198.052 52.2429 198.166 52.4996 198.28 52.7848C198.394 53.0129 198.451 53.2696 198.451 53.5547C199.706 53.6118 200.761 53.7829 201.617 54.0681ZM185.961 52.1859C186.246 51.9578 186.502 51.7581 186.731 51.587C186.959 51.3589 187.187 51.1307 187.415 50.9026C187.643 50.6174 187.871 50.3893 188.099 50.2182C188.328 49.99 188.499 49.7334 188.613 49.4482C189.012 48.8778 189.269 48.1934 189.383 47.3949C189.497 47.2238 189.582 47.0812 189.639 46.9672C189.696 46.8531 189.782 46.739 189.896 46.6249C190.067 46.5109 190.267 46.3112 190.495 46.0261C190.495 45.855 190.523 45.6553 190.58 45.4272C190.695 45.1991 190.78 44.9139 190.837 44.5717C190.951 44.2865 191.037 43.9728 191.094 43.6306C191.151 43.2884 191.236 42.9747 191.35 42.6895C191.407 42.3473 191.464 42.0336 191.522 41.7484C191.636 41.4062 191.721 41.0925 191.778 40.8073C191.835 40.4651 191.864 40.1799 191.864 39.9518C191.864 39.7237 191.864 39.5526 191.864 39.4385C191.864 39.1533 191.835 38.9537 191.778 38.8396C191.721 38.7255 191.693 38.6685 191.693 38.6685C191.693 38.6115 191.636 38.5259 191.522 38.4118C191.636 38.0696 191.693 37.7274 191.693 37.3852C191.75 37.043 191.807 36.7008 191.864 36.3586C191.921 36.0734 191.978 35.7882 192.035 35.503C192.092 35.1608 192.177 34.8186 192.292 34.4764C192.349 34.1912 192.377 33.906 192.377 33.6209C192.434 33.3357 192.463 33.0505 192.463 32.7653C192.577 32.138 192.491 31.6532 192.206 31.3109C192.377 30.7406 192.463 30.2558 192.463 29.8565C192.52 29.4003 192.52 29.0295 192.463 28.7443C192.406 28.4592 192.291 28.2025 192.12 27.9744C192.006 27.6892 191.892 27.4325 191.778 27.2044L191.864 26.4344C191.807 26.2633 191.721 26.1207 191.607 26.0066C191.55 25.8355 191.464 25.6644 191.35 25.4933C191.179 25.1511 190.78 25.0085 190.153 25.0656C189.81 24.6093 189.354 24.21 188.784 23.8678C188.213 23.4686 187.472 23.4401 186.559 23.7823C186.274 23.9534 185.989 24.096 185.704 24.21C185.476 24.2671 185.276 24.3241 185.105 24.3811C184.592 24.4382 184.164 24.6093 183.822 24.8945C183.194 25.4078 182.51 25.9211 181.768 26.4344C181.483 26.7196 181.17 26.9762 180.827 27.2044C180.542 27.4325 180.314 27.6892 180.143 27.9744C180.143 28.3736 180 28.8584 179.715 29.4288C179.487 29.7139 179.287 29.9991 179.116 30.2843C179.002 30.5124 178.831 30.6835 178.603 30.7976C178.66 31.1398 178.546 31.5961 178.261 32.1665C177.919 32.6798 177.633 33.1646 177.405 33.6209C177.291 33.9631 177.177 34.3338 177.063 34.7331C176.949 35.0753 176.863 35.4175 176.806 35.7597C176.692 36.1019 176.578 36.4441 176.464 36.7863C176.407 37.1285 176.265 37.4422 176.036 37.7274C176.15 38.1267 176.15 38.5544 176.036 39.0107C175.979 39.2959 175.922 39.5811 175.865 39.8662C175.865 40.1514 175.808 40.4651 175.694 40.8073C175.58 41.0925 175.495 41.4062 175.438 41.7484C175.381 42.0336 175.323 42.3473 175.266 42.6895C175.152 42.9747 175.067 43.2884 175.01 43.6306C175.01 43.9158 174.981 44.2009 174.924 44.4861C174.582 44.7713 174.354 45.085 174.24 45.4272C174.183 45.5413 174.154 45.6839 174.154 45.855C174.211 46.0261 174.24 46.1972 174.24 46.3683C174.24 46.7105 174.211 46.9957 174.154 47.2238C174.211 47.509 174.154 47.8227 173.983 48.1649C174.211 48.336 174.325 48.5641 174.325 48.8493C174.268 49.0775 174.24 49.4482 174.24 49.9615C174.354 50.0185 174.411 50.0756 174.411 50.1326C174.411 50.1897 174.468 50.2752 174.582 50.3893C174.639 50.5033 174.696 50.5889 174.753 50.6459C174.81 50.703 174.839 50.7885 174.839 50.9026C174.896 51.0737 174.896 51.2163 174.839 51.3304C174.725 51.5585 174.725 51.7581 174.839 51.9292C174.896 51.9863 174.924 52.0433 174.924 52.1003C174.924 52.1574 174.981 52.2429 175.095 52.357C175.152 52.414 175.209 52.4996 175.266 52.6137C175.381 52.6707 175.466 52.7562 175.523 52.8703C175.694 52.9844 175.808 53.0985 175.865 53.2125C175.922 53.2696 176.008 53.3551 176.122 53.4692C176.179 53.5262 176.236 53.5833 176.293 53.6403C176.35 53.6403 176.407 53.6688 176.464 53.7258H176.635C176.806 53.7258 176.949 53.7544 177.063 53.8114C177.12 53.8684 177.206 54.011 177.32 54.2392C177.32 54.3532 177.32 54.4388 177.32 54.4958C177.377 54.5529 177.405 54.6099 177.405 54.6669C177.919 55.1232 178.603 55.2658 179.459 55.0947C180.257 54.9236 181.084 54.9236 181.94 55.0947C182.339 54.6955 182.767 54.3818 183.223 54.1536C183.508 54.0395 183.736 53.9255 183.907 53.8114C184.078 53.6973 184.307 53.5833 184.592 53.4692C184.82 53.184 185.019 52.9274 185.191 52.6992C185.419 52.4711 185.675 52.3 185.961 52.1859Z" fill="black"/>
<path d="M147.069 25.4083C146.271 24.7809 145.358 24.2106 144.332 23.6973C143.476 23.1269 142.307 22.9843 140.824 23.2695C140.368 23.4406 139.854 23.6687 139.284 23.9539C138.771 24.2391 138.286 24.6098 137.83 25.0661C136.86 26.0357 135.976 26.6916 135.177 27.0338C134.778 27.7753 134.35 28.5167 133.894 29.2582C133.495 29.9426 133.039 30.6271 132.525 31.3115C132.069 32.0529 131.584 32.7944 131.071 33.5359C130.615 34.2203 130.158 34.9617 129.702 35.7602C128.846 37.2432 128.105 38.8116 127.478 40.4657C127.078 41.6064 126.85 42.6615 126.793 43.6311C126.679 43.9163 126.651 44.2585 126.708 44.6578C126.765 45 126.765 45.3137 126.708 45.5988C126.594 45.884 126.422 46.2262 126.194 46.6255C126.023 46.9677 125.881 47.2814 125.767 47.5666C125.424 48.3651 125.31 49.1921 125.424 50.0476C125.538 51.1883 125.424 52.3575 125.082 53.5553C124.797 54.753 124.455 55.9223 124.056 57.063C123.941 57.5192 123.827 57.947 123.713 58.3463C123.599 58.6885 123.485 59.0877 123.371 59.544C123.371 59.6581 123.343 59.8862 123.286 60.2284C123.286 60.5136 123.228 60.7132 123.114 60.8273C123 60.9414 122.801 60.9984 122.516 60.9984C122.287 60.9984 122.088 60.9984 121.917 60.9984C121.46 60.9984 121.004 61.0269 120.548 61.084C120.149 61.141 119.721 61.2265 119.265 61.3406C118.58 61.4547 117.924 61.4262 117.297 61.2551C116.726 61.084 116.099 60.9984 115.415 60.9984C114.958 60.9984 114.588 60.9129 114.302 60.7417C114.074 60.6277 113.989 60.3425 114.046 59.8862C114.16 59.2588 114.217 58.6885 114.217 58.1752C114.274 57.6618 114.359 57.12 114.474 56.5496C114.588 56.1504 114.645 55.7797 114.645 55.4375C114.702 55.0952 114.787 54.753 114.901 54.4108C115.015 53.9545 115.187 53.5268 115.415 53.1275C115.643 52.7283 115.871 52.329 116.099 51.9298C116.384 51.4165 116.669 50.9317 116.955 50.4754C117.24 50.0191 117.468 49.5343 117.639 49.021C117.867 48.3936 117.981 47.7662 117.981 47.1388V46.0266C117.981 45.7985 117.981 45.5418 117.981 45.2566C117.981 44.9715 118.038 44.7148 118.152 44.4867C118.266 44.3156 118.409 44.1444 118.58 43.9733C118.751 43.8022 118.894 43.6311 119.008 43.46C119.122 43.2319 119.236 43.0323 119.35 42.8611C119.464 42.69 119.55 42.4904 119.607 42.2623C119.778 41.806 119.92 41.3782 120.035 40.979C120.206 40.5797 120.348 40.152 120.462 39.6957L120.976 37.0435C121.147 36.188 121.489 35.418 122.002 34.7336C121.945 34.2773 121.917 33.764 121.917 33.1936C121.917 32.5663 121.917 31.9389 121.917 31.3115C121.974 29.9997 121.888 28.7449 121.66 27.5471C121.489 26.4064 121.004 25.4939 120.206 24.8094C119.521 24.125 118.323 23.8684 116.612 24.0395C116.27 24.0965 115.871 24.2676 115.415 24.5528C115.072 24.895 114.588 25.1517 113.96 25.3228C113.846 25.4368 113.59 25.4939 113.19 25.4939C112.848 25.4368 112.62 25.4654 112.506 25.5794C112.164 25.7505 111.85 25.9502 111.565 26.1783C111.28 26.3494 110.994 26.5205 110.709 26.6916C110.196 27.1479 109.768 27.5757 109.426 27.9749C109.198 28.2601 108.998 28.5167 108.827 28.7449C108.656 28.973 108.485 29.2297 108.314 29.5149C108.086 29.8 107.886 30.1137 107.715 30.4559C107.601 30.7982 107.43 31.1404 107.202 31.4826C106.745 32.2811 106.232 33.1366 105.662 34.0492C105.319 34.5625 105.034 35.0758 104.806 35.5891C104.578 36.0454 104.35 36.5302 104.122 37.0435C103.836 37.8991 103.551 38.7831 103.266 39.6957C102.981 40.5512 102.753 41.4638 102.582 42.4334C102.468 43.0037 102.354 43.5456 102.239 44.0589C102.125 44.5722 102.011 45.114 101.897 45.6844C101.783 46.1407 101.669 46.5684 101.555 46.9677C101.441 47.3669 101.384 47.7947 101.384 48.251C101.384 49.2206 101.241 50.1617 100.956 51.0742C100.728 51.9298 100.443 52.8423 100.101 53.8119C99.8155 54.5534 99.5018 55.2949 99.1596 56.0363C98.8744 56.7208 98.5036 57.4052 98.0474 58.0896C97.9333 58.2607 97.7907 58.4603 97.6196 58.6885C97.5055 58.8596 97.3915 59.0592 97.2774 59.2873C97.1633 59.5155 97.0778 59.7436 97.0207 59.9718C96.9637 60.1429 96.7926 60.2855 96.5074 60.3995C96.2793 60.5136 96.0511 60.5992 95.823 60.6562C95.5948 60.7703 95.3382 60.8843 95.053 60.9984C94.5397 61.1125 93.9978 61.084 93.4275 60.9129C92.9142 60.7417 92.5149 60.5136 92.2298 60.2284C92.0016 60.0573 91.8305 59.7151 91.7164 59.2018C91.6024 58.9166 91.4883 58.6314 91.3742 58.3463C91.3172 58.004 91.3457 57.6904 91.4598 57.4052C91.5168 57.0059 91.6309 56.6067 91.802 56.2074C92.0301 55.8082 92.2012 55.3804 92.3153 54.9241C92.6005 54.1827 92.8857 53.3557 93.1708 52.4431C93.3419 51.8157 93.513 51.2454 93.6842 50.732C93.9123 50.1617 94.1404 49.5628 94.3686 48.9354C94.7108 48.1369 94.8534 47.3669 94.7963 46.6255C94.7393 46.3403 94.6538 46.0551 94.5397 45.77C94.4826 45.4848 94.4541 45.1711 94.4541 44.8289C94.3971 44.3726 94.4256 43.8878 94.5397 43.3745C94.6538 42.8611 94.7678 42.3478 94.8819 41.8345C94.996 41.3782 95.11 40.9505 95.2241 40.5512C95.3382 40.152 95.4523 39.7242 95.5663 39.2679C95.6234 38.8687 95.6519 38.4979 95.6519 38.1557C95.6519 37.7565 95.6804 37.3572 95.7374 36.958C95.8515 36.3306 95.9941 35.7317 96.1652 35.1614C96.3933 34.534 96.4789 33.9351 96.4219 33.3648C96.4789 32.7944 96.593 32.2526 96.7641 31.7392C96.9922 31.2259 97.1633 30.6841 97.2774 30.1137C97.3915 29.8286 97.477 29.5719 97.534 29.3438C97.5911 29.0586 97.5626 28.7734 97.4485 28.4882C97.3344 28.2601 97.1918 28.089 97.0207 27.9749C96.9067 27.8608 96.7641 27.7468 96.593 27.6327C96.0226 27.3475 95.3952 27.1764 94.7108 27.1194C94.0834 27.0053 93.5416 26.7201 93.0853 26.2638C92.629 25.8076 92.2583 25.1802 91.9731 24.3817C91.7449 23.5832 91.9731 22.8417 92.6575 22.1573C92.8857 21.9292 93.1423 21.7581 93.4275 21.644C93.7697 21.5299 94.0834 21.4158 94.3686 21.3018C94.7108 21.1877 95.0245 21.0736 95.3097 20.9596C95.6519 20.8455 95.9656 20.7314 96.2507 20.6173C97.0492 20.3322 97.8477 20.104 98.6462 19.9329C99.4447 19.7048 100.215 19.5907 100.956 19.5907C101.755 19.5907 102.525 19.5622 103.266 19.5052C104.065 19.4481 104.806 19.5052 105.49 19.6763C106.061 19.7903 106.631 20.104 107.202 20.6173C107.544 20.9596 107.8 21.1877 107.972 21.3018C108.086 21.3588 108.2 21.4444 108.314 21.5584C108.485 21.6155 108.627 21.644 108.741 21.644C108.913 21.701 109.112 21.6725 109.34 21.5584C109.569 21.3873 109.797 21.2447 110.025 21.1307C110.196 21.0166 110.396 20.931 110.624 20.874C110.852 20.7599 111.051 20.6459 111.223 20.5318C112.078 20.1896 112.934 19.8759 113.789 19.5907C114.645 19.3055 115.5 19.0774 116.356 18.9063C118.922 18.3359 121.774 18.3644 124.911 18.9918C126.109 19.9614 127.021 20.8455 127.649 21.644C128.561 22.6706 129.303 23.6973 129.873 24.7239C130.672 25.0661 131.442 25.1231 132.183 24.895C132.582 24.7809 132.953 24.6669 133.295 24.5528C133.637 24.3817 133.951 24.1821 134.236 23.9539C134.579 23.7258 134.892 23.4976 135.177 23.2695C135.52 22.9843 135.862 22.6991 136.204 22.414C136.774 21.8436 137.487 21.3018 138.343 20.7885C138.742 20.5603 139.141 20.3607 139.541 20.1896C139.997 19.9614 140.482 19.7048 140.995 19.4196C141.508 19.1915 141.965 19.0204 142.364 18.9063C142.82 18.7922 143.191 18.6781 143.476 18.5641C143.761 18.507 144.046 18.4785 144.332 18.4785C144.674 18.4785 145.016 18.4785 145.358 18.4785C145.7 18.5356 146.014 18.6211 146.299 18.7352C146.642 18.8492 146.984 18.9918 147.326 19.1629C147.554 19.1059 147.754 19.0489 147.925 18.9918C148.153 18.9348 148.41 18.8492 148.695 18.7352C149.094 18.5641 149.664 18.5356 150.406 18.6496C150.634 18.8778 150.834 19.0774 151.005 19.2485C151.233 19.4196 151.432 19.6192 151.604 19.8474C152.003 20.2466 152.459 20.5603 152.972 20.7885C152.858 21.5299 152.887 22.1288 153.058 22.5851C153.229 23.0413 153.457 23.4976 153.742 23.9539C153.856 24.2391 153.942 24.4958 153.999 24.7239C154.113 24.895 154.227 25.0946 154.341 25.3228C154.626 25.779 154.769 26.2638 154.769 26.7772C154.769 27.5186 154.741 28.2601 154.684 29.0015C154.626 29.686 154.541 30.3989 154.427 31.1404C154.313 31.8818 154.17 32.5948 153.999 33.2792C153.885 33.9636 153.714 34.6766 153.486 35.418C153.315 36.1025 153.115 36.7869 152.887 37.4713C152.716 38.1557 152.545 38.8687 152.374 39.6101C152.145 40.2946 151.974 40.979 151.86 41.6634C151.803 42.2908 151.718 42.9182 151.604 43.5456C151.604 43.8308 151.575 44.1159 151.518 44.4011C151.518 44.6292 151.547 44.8859 151.604 45.1711C151.718 45.4563 151.746 45.7414 151.689 46.0266C151.689 46.2548 151.661 46.5114 151.604 46.7966C151.49 47.1388 151.404 47.481 151.347 47.8232C151.29 48.1084 151.204 48.3936 151.09 48.6788C150.976 48.9639 150.891 49.2206 150.834 49.4487C150.777 49.6769 150.72 49.9335 150.663 50.2187C150.72 50.618 150.748 51.0172 150.748 51.4165C150.748 51.8157 150.948 52.1579 151.347 52.4431C151.632 52.5572 151.974 52.6142 152.374 52.6142C152.773 52.5572 153.144 52.4431 153.486 52.272C153.771 52.0438 154.056 51.8157 154.341 51.5876C154.684 51.3024 155.026 51.0742 155.368 50.9031C155.596 50.7891 155.853 50.618 156.138 50.3898C156.423 50.1617 156.68 50.0476 156.908 50.0476C157.193 50.0476 157.45 50.2187 157.678 50.5609C157.792 50.732 157.849 50.9602 157.849 51.2454C157.906 51.4735 157.992 51.7016 158.106 51.9298C158.22 52.215 158.22 52.6142 158.106 53.1275C157.992 53.5838 157.849 53.9831 157.678 54.3253C157.279 55.4089 156.708 56.3215 155.967 57.063C155.511 57.5192 155.083 58.004 154.684 58.5174C154.341 58.9736 153.885 59.3444 153.315 59.6296C152.801 59.9147 152.288 60.2284 151.775 60.5706C151.318 60.8558 150.777 60.9984 150.149 60.9984C149.693 60.9984 149.237 60.9984 148.78 60.9984C148.381 61.0554 147.982 61.0554 147.583 60.9984C147.297 60.9414 146.984 60.8273 146.642 60.6562C146.356 60.5421 146.071 60.4281 145.786 60.314C145.501 60.1999 145.216 60.0573 144.93 59.8862C144.645 59.7151 144.36 59.5725 144.075 59.4585C143.961 59.3444 143.847 59.2588 143.733 59.2018C143.619 59.1448 143.505 59.0592 143.39 58.9451C143.276 58.8311 143.191 58.6885 143.134 58.5174C143.134 58.3463 143.105 58.2037 143.048 58.0896C142.763 57.4052 142.592 56.6352 142.535 55.7797C142.421 55.3234 142.421 54.8386 142.535 54.3253C142.649 53.8119 142.735 53.2986 142.792 52.7853C142.906 52.3861 142.991 52.0438 143.048 51.7587C143.162 51.4165 143.333 51.0742 143.562 50.732C143.961 49.9906 144.16 49.2491 144.16 48.5077C144.103 48.0514 144.132 47.5381 144.246 46.9677C144.36 46.3973 144.417 45.884 144.417 45.4277C144.474 45.0855 144.503 44.7433 144.503 44.4011C144.503 44.0589 144.503 43.7167 144.503 43.3745C144.56 42.7471 144.731 42.0341 145.016 41.2356C145.13 41.0645 145.216 40.8934 145.273 40.7223C145.387 40.4942 145.501 40.2946 145.615 40.1235C145.729 39.8953 145.815 39.6957 145.872 39.5246C145.929 39.3535 145.986 39.1538 146.043 38.9257C146.214 38.4694 146.328 38.0131 146.385 37.5569C146.442 37.1006 146.527 36.5587 146.642 35.9313C146.756 35.361 146.813 34.7906 146.813 34.2203C146.87 33.6499 146.927 33.0511 146.984 32.4237C147.041 31.7963 147.069 31.1974 147.069 30.6271C147.069 29.9997 147.069 29.3723 147.069 28.7449C147.069 28.1175 147.069 27.5471 147.069 27.0338C147.126 26.4635 147.126 25.9216 147.069 25.4083Z" fill="black"/>
<path d="M72.9508 26.8637C73.1219 25.9511 73.3215 25.01 73.5496 24.0404C73.8348 23.0708 74.177 22.1012 74.5763 21.1316C75.3177 19.1924 75.8596 17.1677 76.2018 15.0573C76.2588 14.544 76.3159 14.0307 76.3729 13.5174C76.487 13.0041 76.544 12.4908 76.544 11.9774C76.6581 11.6352 76.8007 11.3215 76.9718 11.0364C77.1999 10.466 77.314 10.0382 77.314 9.75305C77.1999 9.12567 77.0288 8.55531 76.8007 8.04199C76.6296 7.4146 76.3159 6.9298 75.8596 6.58759C75.4603 6.18834 75.1752 5.67502 75.004 5.04763C74.8329 4.59135 74.7474 4.13507 74.7474 3.67879C74.7474 3.16547 74.89 2.62363 75.1752 2.05327C75.4603 1.48292 75.8596 1.05515 76.3729 0.769978C76.7721 0.598874 77.2855 0.427768 77.9129 0.256661C78.4832 0.0855536 79.1391 0 79.8806 0C80.1658 0 80.3939 0.0285189 80.565 0.085557C80.7931 0.085557 81.0498 0.085557 81.335 0.085557C81.6202 0.085557 81.8768 0.085557 82.105 0.085557C82.3331 0.085557 82.5612 0.142592 82.7894 0.256661C82.9605 0.313696 83.1316 0.427767 83.3027 0.598874C83.4738 0.712943 83.6164 0.827014 83.7305 0.941087C83.8445 1.05516 83.9586 1.14071 84.0727 1.19774C84.1868 1.25478 84.3008 1.34033 84.4149 1.4544C84.4719 1.56847 84.5004 1.71106 84.5004 1.88217C84.5004 1.99624 84.5575 2.11031 84.6716 2.22438C84.7856 2.50956 84.8997 2.82325 85.0138 3.16546C85.1849 3.45064 85.2419 3.79285 85.1849 4.1921C85.1278 4.64839 85.0138 5.10467 84.8427 5.56095C84.6715 6.01724 84.6145 6.47352 84.6716 6.9298C84.6145 7.21498 84.6145 7.50016 84.6716 7.78533C84.7856 8.01348 84.7856 8.27013 84.6716 8.55531C84.4434 9.46788 84.1867 10.3519 83.9016 11.2075C83.6164 12.063 83.3597 12.9185 83.1316 13.774C83.0746 14.0592 83.046 14.3159 83.046 14.544C83.046 14.7151 83.046 14.9148 83.046 15.1429C82.989 15.4281 82.9605 15.6847 82.9605 15.9129C82.9605 16.084 82.932 16.2836 82.8749 16.5117C82.7038 17.6525 82.5042 18.7932 82.2761 19.9339C82.0479 21.0746 81.7913 22.3008 81.5061 23.6127C81.1639 24.9245 80.8787 26.2078 80.6506 27.4625C80.4224 28.7173 80.1943 29.9721 79.9661 31.2269C79.9091 31.5691 79.8806 31.8828 79.8806 32.168C79.8806 32.3961 79.8521 32.6528 79.795 32.9379C79.795 33.1661 79.795 33.4227 79.795 33.7079C79.795 33.9361 79.738 34.1927 79.6239 34.4779C79.4528 35.1623 79.2532 35.7042 79.025 36.1034C78.911 36.3886 78.7969 36.6738 78.6828 36.9589C78.5688 37.1871 78.4547 37.4437 78.3406 37.7289C77.9414 39.3829 77.5992 41.1225 77.314 42.9477C77.2569 43.7462 77.1429 44.5161 76.9718 45.2576C76.8577 45.942 76.6581 46.6835 76.3729 47.482C76.2588 47.9953 76.1162 48.5086 75.9451 49.0219C75.774 49.4782 75.6314 49.963 75.5174 50.4763C75.4603 50.7045 75.4033 50.9611 75.3463 51.2463C75.3463 51.5315 75.4033 51.7311 75.5174 51.8452C75.6885 52.0733 75.9166 52.1018 76.2018 51.9307C76.544 51.7596 76.8007 51.617 76.9718 51.503C77.4281 51.3319 77.8273 51.1608 78.1695 50.9896C78.5688 50.7615 78.9965 50.6189 79.4528 50.5619C80.2513 50.4478 80.6506 50.79 80.6506 51.5885C80.7076 51.8737 80.7076 52.1304 80.6506 52.3585C80.5935 52.5866 80.5935 52.8433 80.6506 53.1285C80.7076 53.4137 80.7076 53.7273 80.6506 54.0696C80.6506 54.4118 80.622 54.7255 80.565 55.0106C80.4509 55.4669 80.3369 55.9232 80.2228 56.3795C80.1658 56.7787 79.9946 57.2065 79.7095 57.6628C79.4243 58.062 79.1391 58.4328 78.8539 58.775C78.5688 59.1172 78.2266 59.4309 77.8273 59.7161C77.6562 59.8301 77.4851 59.9157 77.314 59.9727C77.1429 59.9727 77.0003 60.0012 76.8862 60.0583C76.7151 60.1723 76.5155 60.2864 76.2874 60.4005C76.1162 60.4575 75.9451 60.5146 75.774 60.5716C75.3748 60.6857 75.0041 60.7142 74.6618 60.6571C74.3767 60.6001 74.0915 60.5431 73.8063 60.486C73.6352 60.486 73.4641 60.486 73.293 60.486C73.1789 60.429 73.0363 60.372 72.8652 60.3149C72.7512 60.3149 72.6656 60.3435 72.6086 60.4005C72.5515 60.4005 72.466 60.3435 72.3519 60.2294C72.0667 60.1153 71.7815 60.0298 71.4964 59.9727C71.2682 59.8587 71.0116 59.7446 70.7264 59.6305C70.4412 59.4594 70.1846 59.2883 69.9564 59.1172C69.7853 58.9461 69.5857 58.775 69.3575 58.6039C69.1294 58.4898 68.9583 58.4042 68.8442 58.3472C68.7302 58.2331 68.6446 58.062 68.5876 57.8339C68.4735 57.7198 68.3879 57.6058 68.3309 57.4917C68.3309 57.3206 68.2739 57.178 68.1598 57.0639C68.0457 56.7787 67.9031 56.4936 67.732 56.2084C67.618 55.9232 67.618 55.6095 67.732 55.2673C67.8461 54.811 67.9317 54.3833 67.9887 53.984C68.1028 53.5277 68.1883 53.0714 68.2454 52.6152C68.3594 52.33 68.3879 52.0733 68.3309 51.8452C68.2739 51.617 68.2739 51.3604 68.3309 51.0752C68.502 50.2197 68.7016 49.3641 68.9298 48.5086C69.1579 47.6531 69.329 46.8261 69.4431 46.0276C69.5572 45.2861 69.6998 44.6017 69.8709 43.9743C70.099 43.2899 70.2986 42.634 70.4697 42.0066C70.5838 41.7214 70.6979 41.4647 70.8119 41.2366C70.926 40.9514 71.0401 40.6948 71.1542 40.4666C71.3823 39.9533 71.5534 39.5255 71.6675 39.1833C71.7815 38.5559 71.7815 37.9 71.6675 37.2156C71.6104 36.8164 71.5534 36.4456 71.4964 36.1034C71.4964 35.7612 71.5249 35.419 71.5819 35.0768C71.5819 34.6205 71.7245 33.9075 72.0097 32.9379C72.1808 32.4817 72.3234 32.0539 72.4375 31.6546C72.5515 31.2554 72.6656 30.8276 72.7797 30.3714C72.7797 30.0862 72.7797 29.801 72.7797 29.5158C72.8367 29.1736 72.8367 28.8599 72.7797 28.5747C72.7797 28.2896 72.7797 28.0044 72.7797 27.7192C72.8367 27.434 72.8937 27.1489 72.9508 26.8637Z" fill="black"/>
<path d="M44.4983 59.1171C44.042 59.2312 43.6713 59.4593 43.3861 59.8016C43.1009 60.1438 42.7587 60.4289 42.3595 60.6571C41.7321 60.543 41.1332 60.5715 40.5629 60.7426C40.0495 60.9708 39.5933 60.9423 39.194 60.6571C38.9088 60.7712 38.5381 60.8282 38.0818 60.8282C37.6255 60.8282 37.1693 60.7712 36.713 60.6571C36.5989 60.6 36.4848 60.5145 36.3708 60.4004C36.2567 60.2293 36.0856 60.0867 35.8574 59.9727C35.4012 59.7445 35.0304 59.5734 34.7453 59.4593C34.5171 59.2882 34.5456 58.8034 34.8308 58.0049C34.9449 57.7198 35.116 57.5201 35.3441 57.4061C35.5723 57.235 35.8004 57.0068 36.0285 56.7216C36.3708 56.7216 36.6559 56.6646 36.8841 56.5505C37.1693 56.4365 37.54 56.4365 37.9963 56.5505C39.137 56.3794 40.0495 56.0372 40.734 55.5239C41.4184 54.9535 41.9887 54.098 42.445 52.9573C42.445 52.7862 42.4735 52.5581 42.5306 52.2729C42.6447 51.9877 42.7017 51.7025 42.7017 51.4173C42.7587 51.1322 42.7302 50.904 42.6161 50.7329C42.5021 50.5048 42.388 50.2481 42.2739 49.9629C42.2739 49.7918 42.3024 49.6207 42.3595 49.4496C42.4165 49.2785 42.4165 49.1074 42.3595 48.9363C42.2454 48.6511 42.1028 48.2804 41.9317 47.8241C41.7606 47.3678 41.6465 46.9401 41.5895 46.5408C41.5325 46.4838 41.5895 46.3127 41.7606 46.0275C41.7606 45.8564 41.6751 45.6283 41.5039 45.3431C41.3899 45.0009 41.2188 44.6587 40.9906 44.3164C40.7625 43.9742 40.5343 43.6605 40.3062 43.3754C40.1351 43.0902 39.964 42.9191 39.7929 42.862C38.9374 42.862 38.0818 42.862 37.2263 42.862C36.3708 42.805 35.8004 42.5483 35.5152 42.0921C34.9449 42.3202 34.2319 42.5483 33.3764 42.7765C32.5209 42.9476 31.8079 42.8906 31.2376 42.6054C30.1539 42.6624 29.0702 42.862 27.9866 43.2043C26.9029 43.5465 25.8762 43.5465 24.9066 43.2043C24.7355 43.1472 24.6215 43.1472 24.5644 43.2043C24.5074 43.2613 24.4218 43.3468 24.3078 43.4609C23.3952 43.4039 22.4826 43.8316 21.5701 44.7442C21.513 44.8012 21.4845 44.8868 21.4845 45.0009C21.5416 45.0579 21.5416 45.1149 21.4845 45.172C21.1423 45.6283 20.7431 45.999 20.2868 46.2842C19.8305 46.5123 19.4883 46.9115 19.2601 47.4819C18.7468 48.7367 18.6042 49.7633 18.8324 50.5618C19.0605 51.3603 19.2031 52.1588 19.2601 52.9573C19.7164 53.2425 20.0301 53.6702 20.2012 54.2406C20.4294 54.7539 20.7716 55.1817 21.2279 55.5239C21.456 55.695 21.6841 55.8376 21.9123 55.9517C22.1975 56.0087 22.4541 56.0942 22.6823 56.2083C22.9104 56.3224 23.0815 56.4935 23.1956 56.7216C23.3667 56.8927 23.4237 57.1494 23.3667 57.4916C23.0245 58.2901 22.6252 58.9175 22.1689 59.3738C21.7697 59.8301 21.1993 60.2008 20.4579 60.486H14.4692C13.6136 59.9156 12.587 59.773 11.3893 60.0582C10.1915 60.3434 9.07932 60.6 8.05269 60.8282C7.5964 60.6571 7.02605 60.6 6.34162 60.6571C5.6572 60.6571 4.97277 60.6856 4.28835 60.7426C3.66096 60.7997 3.06209 60.7997 2.49173 60.7426C1.97842 60.6856 1.60769 60.486 1.37954 60.1438H0.524013C0.124765 59.8016 -0.0463412 59.3168 0.0106941 58.6894C0.0677295 58.0049 0.324389 57.3775 0.780672 56.8072C1.29399 56.6361 1.77879 56.3509 2.23507 55.9517C2.69136 55.5524 3.23319 55.2387 3.86058 55.0106C4.14576 54.8965 4.45946 54.811 4.80167 54.7539C5.14388 54.6969 5.48609 54.5828 5.8283 54.4117C6.22755 54.1836 6.56977 53.9269 6.85494 53.6417C7.19715 53.2995 7.53937 52.9858 7.88158 52.7006H8.30935C8.59452 52.4155 8.8797 52.1303 9.16488 51.8451C9.50709 51.5599 9.8493 51.2748 10.1915 50.9896C10.8759 49.3356 11.703 47.9097 12.6726 46.7119C13.6992 45.5142 14.5832 44.1453 15.3247 42.6054C15.6669 42.3772 15.9806 42.0921 16.2658 41.7498C16.551 41.4076 16.8361 41.0654 17.1213 40.7232C17.2354 40.1529 17.378 39.6966 17.5491 39.3544C17.7772 38.9551 18.0054 38.5844 18.2335 38.2422C18.4616 37.9 18.6898 37.5292 18.9179 37.13C19.2031 36.7307 19.4312 36.2745 19.6024 35.7611C19.8875 35.1337 20.3153 34.5063 20.8856 33.879C21.513 33.1945 22.0549 32.6242 22.5112 32.1679C22.7393 31.5975 22.9389 31.0557 23.11 30.5424C23.2811 30.0291 23.5948 29.6298 24.0511 29.3446C24.2222 28.6602 24.4504 28.0614 24.7355 27.548C25.0778 27.0347 25.42 26.5499 25.7622 26.0936C26.1044 25.6373 26.4466 25.1811 26.7888 24.7248C27.131 24.2685 27.4447 23.7267 27.7299 23.0993C27.844 23.1563 27.901 23.1278 27.901 23.0137C27.901 22.8426 27.958 22.8141 28.0721 22.9282C28.5284 22.0156 29.0417 21.1316 29.6121 20.276C30.2395 19.4205 30.9239 18.622 31.6653 17.8805C31.8364 17.1961 32.0646 16.5972 32.3498 16.0839C32.6349 15.5706 32.9201 14.9147 33.2053 14.1162C33.3764 13.6599 33.6331 13.2321 33.9753 12.8329C34.3745 12.3766 34.7167 12.0059 35.0019 11.7207C35.2871 10.8081 35.6578 10.2093 36.1141 9.9241C36.1141 9.52485 36.1426 9.21115 36.1997 8.98301C36.5419 8.69784 36.77 8.156 36.8841 7.3575C37.3404 7.07233 37.597 6.64456 37.6541 6.07421C37.7111 5.44682 37.9107 4.90498 38.2529 4.4487C38.367 4.33463 38.5666 4.16352 38.8518 3.93538C39.137 3.70724 39.3936 3.45058 39.6218 3.1654C40.0781 2.70912 40.5058 2.28135 40.9051 1.88211C41.3043 1.48286 41.7321 1.2262 42.1884 1.11213C42.3024 1.11213 42.4165 1.14064 42.5306 1.19768C42.7017 1.19768 42.8443 1.16916 42.9583 1.11213C43.2435 1.05509 43.5572 0.998058 43.8994 0.941023C44.2987 0.826951 44.6694 0.826951 45.0116 0.941023C45.3538 1.05509 45.6105 1.28323 45.7816 1.62544C45.9527 1.96766 46.352 2.11025 46.9793 2.05321C47.1505 2.50949 47.4071 2.96578 47.7493 3.42206C48.0915 3.82131 48.2626 4.33463 48.2626 4.96202C48.2626 5.24719 48.2056 5.53237 48.0915 5.81755C47.9775 6.10272 47.9204 6.3879 47.9204 6.67308C47.8634 6.95826 47.8919 7.24343 48.006 7.52861C48.1201 7.75675 48.2056 7.98489 48.2626 8.21303C48.0915 9.06856 48.063 9.75299 48.1771 10.2663C48.2912 10.7796 48.3767 11.407 48.4337 12.1485C48.4337 12.2626 48.4908 12.3766 48.6049 12.4907C48.4908 12.7188 48.4052 13.004 48.3482 13.3462C48.3482 13.6884 48.4052 13.9166 48.5193 14.0306C48.4052 14.2018 48.3482 14.4014 48.3482 14.6295C48.4052 14.8006 48.3767 14.9432 48.2626 15.0573C48.3767 16.0839 48.5193 17.0535 48.6904 17.9661C48.8615 18.8787 48.9471 19.8768 48.9471 20.9604C48.9471 21.4167 49.0041 21.816 49.1182 22.1582C49.2322 22.5004 49.2893 22.8997 49.2893 23.3559C49.5745 23.47 49.6885 23.6696 49.6315 23.9548C49.5745 24.1829 49.603 24.4396 49.717 24.7248C49.7741 24.8959 49.8311 25.067 49.8881 25.2381C50.0022 25.4092 50.0593 25.6088 50.0593 25.837C50.0593 26.0651 50.0022 26.2933 49.8881 26.5214C49.8311 26.6925 49.8026 26.8921 49.8026 27.1203C49.8026 27.6336 49.9167 28.1184 50.1448 28.5747C50.43 29.031 50.6296 29.5158 50.7437 30.0291C50.6296 30.4283 50.5726 30.6565 50.5726 30.7135C50.5155 31.0557 50.5441 31.3979 50.6581 31.7401C50.7722 32.0253 50.8007 32.339 50.7437 32.6812C50.6866 32.9664 50.6011 33.2516 50.487 33.5368C50.373 33.8219 50.3444 34.1071 50.4015 34.3923C50.3444 34.6775 50.4015 34.9341 50.5726 35.1623C50.8007 35.3904 50.8578 35.7041 50.7437 36.1033C50.9718 36.5596 51.1429 37.0729 51.257 37.6433C51.3711 38.2137 51.4851 38.7555 51.5992 39.2688C51.8844 39.611 51.9414 40.0388 51.7703 40.5521C51.5992 41.0084 51.5422 41.4647 51.5992 41.921C51.5422 42.3202 51.6277 42.7195 51.8559 43.1187C52.084 43.4609 52.2551 43.8602 52.3692 44.3164C52.4262 44.5446 52.4262 44.7727 52.3692 45.0009C52.3122 45.172 52.2836 45.3146 52.2836 45.4286C52.3977 45.8279 52.5403 46.2271 52.7114 46.6264C52.9395 46.9686 53.1107 47.2823 53.2247 47.5675C53.0536 47.9667 53.0251 48.3374 53.1392 48.6796C53.3103 48.9648 53.3958 49.25 53.3958 49.5352C53.3958 50.0485 53.4243 50.3907 53.4814 50.5618C53.5955 50.6759 53.738 50.904 53.9091 51.2462C54.1373 51.7596 54.2799 52.3584 54.3369 53.0429C54.3939 53.6702 54.7362 54.0695 55.3635 54.2406C55.6487 54.868 56.1335 55.2958 56.818 55.5239C57.5024 55.752 58.0727 56.0943 58.529 56.5505C58.9853 56.4935 59.299 56.5505 59.4701 56.7216C59.6982 56.8357 59.8408 57.0353 59.8979 57.3205C60.0119 57.5487 60.069 57.8338 60.069 58.176C60.126 58.4612 60.183 58.7464 60.2401 59.0316C60.0119 59.2027 59.8123 59.4308 59.6412 59.716C59.4701 59.9441 59.299 60.2008 59.1279 60.486C58.5005 60.543 57.8446 60.7426 57.1602 61.0848C56.5328 61.4271 55.9339 61.6267 55.3635 61.6837C54.9073 61.6837 54.451 61.6267 53.9947 61.5126C53.5955 61.3985 53.1677 61.2845 52.7114 61.1704C52.2551 61.0563 51.7703 60.9708 51.257 60.9137C50.8007 60.8567 50.3159 60.9137 49.8026 61.0848C49.5745 60.9708 49.2608 60.8852 48.8615 60.8282C48.5193 60.8282 48.1486 60.8282 47.7493 60.8282C47.4071 60.8282 47.0364 60.8282 46.6371 60.8282C46.2949 60.8282 46.0097 60.7712 45.7816 60.6571C45.4394 60.0867 45.0116 59.5734 44.4983 59.1171ZM35.173 21.9015C35.2871 22.1867 35.2586 22.3578 35.0875 22.4148C34.9164 22.4719 34.8023 22.643 34.7453 22.9282C34.1749 23.3274 33.7186 23.8407 33.3764 24.4681C33.0912 25.0385 32.7205 25.4662 32.2642 25.7514C32.0931 26.1507 31.922 26.5214 31.7509 26.8636C31.5798 27.1488 31.3516 27.4054 31.0665 27.6336C31.0094 28.0899 30.8383 28.4321 30.5532 28.6602C30.325 28.8313 30.1254 29.1165 29.9543 29.5158C29.8402 29.6298 29.7832 29.7724 29.7832 29.9435C29.8402 30.1146 29.8402 30.2857 29.7832 30.4568C29.6691 30.742 29.498 31.0557 29.2699 31.3979C29.0417 31.7401 28.8706 32.0538 28.7565 32.339C28.4714 33.1375 28.3858 33.7649 28.4999 34.2212C28.671 34.6204 28.7851 35.0482 28.8421 35.5045C29.1843 35.5615 29.5265 35.6756 29.8687 35.8467C30.2109 36.0178 30.5531 36.1889 30.8954 36.36C31.2376 36.5311 31.5798 36.6452 31.922 36.7022C32.2642 36.7593 32.6635 36.7307 33.1197 36.6167H34.5741C35.2015 36.3315 35.8004 36.2744 36.3708 36.4456C36.9982 36.6167 37.6541 36.5881 38.3385 36.36C38.6807 36.0178 38.9944 35.7611 39.2796 35.59C39.6218 35.4189 39.8784 35.1052 40.0495 34.6489C40.3918 33.9075 40.5058 33.2801 40.3918 32.7668C40.3347 32.1964 40.2207 31.6546 40.0495 31.1413C39.9355 30.6279 39.8214 30.0861 39.7073 29.5158C39.6503 28.9454 39.7644 28.2895 40.0495 27.548C39.9925 27.434 39.907 27.3484 39.7929 27.2914C39.6788 27.2343 39.6503 27.1203 39.7073 26.9492C39.7644 26.1507 39.6218 25.5518 39.2796 25.1525C38.9944 24.6963 38.9088 24.0689 39.0229 23.2704C38.9088 23.2133 38.8233 23.0993 38.7663 22.9282C38.7663 22.7571 38.7092 22.643 38.5951 22.586C38.6522 22.1867 38.5666 21.873 38.3385 21.6449C38.1103 21.3597 37.7966 21.1886 37.3974 21.1316C37.0552 21.0175 36.6559 21.0175 36.1997 21.1316C35.8004 21.2456 35.4582 21.5023 35.173 21.9015Z" fill="black"/>
</svg>
