<svg width="118" height="24" viewBox="0 0 118 24" fill="none" xmlns="http://www.w3.org/2000/svg">
<path d="M110.041 23.9331C109.511 23.9331 108.982 23.7676 108.452 23.4366C107.944 23.0834 107.514 22.62 107.161 22.0462C106.83 21.4724 106.675 20.8214 106.697 20.0931C106.719 19.1883 106.863 18.2503 107.128 17.2793C107.393 16.3083 107.768 15.3593 108.253 14.4324C108.739 13.5055 109.335 12.6779 110.041 11.9497C110.747 11.1993 111.553 10.6034 112.457 10.1621C113.362 9.72069 114.355 9.5 115.437 9.5C116.121 9.5 116.65 9.64345 117.026 9.93035C117.423 10.1952 117.622 10.5152 117.622 10.8903C117.622 11.2655 117.5 11.6517 117.257 12.049C117.015 12.4241 116.761 12.6117 116.496 12.6117C116.319 12.6117 116.165 12.5345 116.033 12.38C115.922 12.2255 115.79 12.0048 115.635 11.7179C115.481 11.431 115.282 11.1772 115.039 10.9566C114.819 10.7138 114.543 10.5924 114.212 10.5924C113.704 10.5924 113.186 10.8793 112.656 11.4531C112.126 12.0048 111.63 12.7221 111.166 13.6048C110.725 14.4876 110.361 15.4366 110.074 16.4517C109.809 17.4669 109.666 18.4159 109.644 19.2986C109.644 20.049 109.809 20.6007 110.14 20.9538C110.471 21.2848 110.924 21.4503 111.497 21.4503C112.159 21.4503 112.722 21.3179 113.186 21.0531C113.649 20.7662 114.079 20.4021 114.477 19.9607C114.609 19.8283 114.719 19.729 114.808 19.6628C114.896 19.5966 114.995 19.5634 115.106 19.5634C115.304 19.5634 115.404 19.6959 115.404 19.9607C115.404 20.2697 115.249 20.6448 114.94 21.0862C114.653 21.5276 114.245 21.969 113.715 22.4103C113.208 22.8517 112.634 23.2159 111.994 23.5028C111.376 23.7897 110.725 23.9331 110.041 23.9331Z" fill="black"/>
<path d="M91.772 23.9009C91.5071 23.9009 91.2313 23.8236 90.9444 23.6691C90.6575 23.5146 90.4258 23.3271 90.2492 23.1064C90.0726 22.8636 89.9844 22.6209 89.9844 22.3781C89.9844 21.6278 90.2161 20.7671 90.6795 19.796C91.1651 18.825 91.8713 17.7657 92.7982 16.6181C93.7471 15.4484 94.8947 14.2126 96.2409 12.9105C97.3444 11.8733 98.2823 11.0788 99.0547 10.5271C99.8492 9.95327 100.434 9.66637 100.809 9.66637C101.251 9.66637 101.681 9.87603 102.1 10.2953C102.343 10.6043 102.453 10.7478 102.431 10.7257C102.431 10.7036 102.442 10.6926 102.464 10.6926C102.509 10.6926 102.542 10.6815 102.564 10.6595C102.608 10.6374 102.641 10.5822 102.663 10.494C102.928 10.0526 103.093 9.77672 103.16 9.66637C103.226 9.53396 103.248 9.46775 103.226 9.46775C103.336 9.24706 103.513 9.13672 103.755 9.13672C103.998 9.13672 104.252 9.19189 104.517 9.30224C104.782 9.39051 105.002 9.51189 105.179 9.66637C105.355 9.79879 105.444 9.94224 105.444 10.0967C105.444 10.2071 105.377 10.4278 105.245 10.7588L101.703 20.2926C101.438 20.9767 101.571 21.3188 102.1 21.3188C102.453 21.3188 102.895 21.1312 103.424 20.756C103.976 20.3588 104.484 19.8843 104.947 19.3326C104.991 19.2884 105.035 19.2553 105.08 19.2333C105.124 19.2112 105.168 19.2002 105.212 19.2002C105.3 19.2002 105.366 19.2333 105.411 19.2995C105.455 19.3657 105.477 19.465 105.477 19.5974C105.477 19.8181 105.3 20.1712 104.947 20.6567C104.616 21.1422 104.23 21.5836 103.789 21.9809C103.104 22.5988 102.42 23.0733 101.736 23.4043C101.052 23.7353 100.456 23.9009 99.9485 23.9009C99.6837 23.9009 99.4189 23.8236 99.154 23.6691C98.8892 23.5146 98.6685 23.3271 98.492 23.1064C98.3154 22.8857 98.2271 22.654 98.2271 22.4112C98.2271 22.2126 98.2933 21.9588 98.4258 21.6498C98.3816 21.7381 98.3926 21.6829 98.4589 21.4843C98.5471 21.2857 98.6685 21.0098 98.823 20.6567C98.9995 20.2815 99.1761 19.8953 99.3527 19.4981C99.5292 19.1009 99.6837 18.7478 99.8161 18.4388C99.9264 18.2402 99.9595 18.0967 99.9154 18.0084C99.8933 17.8981 99.8271 17.9091 99.7168 18.0415C98.4368 19.454 97.3223 20.6015 96.3733 21.4843C95.4244 22.345 94.5858 22.9629 93.8575 23.3381C93.1292 23.7133 92.434 23.9009 91.772 23.9009ZM94.2216 21.3188C94.663 21.3188 95.3361 20.9326 96.2409 20.1602C97.1457 19.3878 98.1499 18.3505 99.2533 17.0484C100.048 16.1215 100.666 15.2829 101.107 14.5326C101.571 13.7602 101.802 13.1864 101.802 12.8112C101.802 12.6346 101.637 12.4029 101.306 12.116C101.129 11.9836 100.953 11.8843 100.776 11.8181C100.6 11.7298 100.456 11.6857 100.346 11.6857C99.9485 11.6857 99.4189 11.8843 98.7568 12.2815C98.1168 12.6788 97.5209 13.1422 96.9692 13.6719C96.3292 14.2898 95.7223 15.0071 95.1485 15.8236C94.5747 16.6181 94.1113 17.4126 93.7582 18.2071C93.4051 18.9795 93.2285 19.6305 93.2285 20.1602C93.2285 20.5133 93.3168 20.8002 93.4933 21.0209C93.6699 21.2195 93.9126 21.3188 94.2216 21.3188Z" fill="black"/>
<path d="M75.8244 23.9331C75.6699 23.9331 75.5044 23.8779 75.3278 23.7676C75.1513 23.6572 74.9858 23.5138 74.8313 23.3372C74.6989 23.1386 74.5995 22.929 74.5333 22.7083C74.4671 22.4655 74.4892 22.2448 74.5995 22.0462L78.2409 13.009C78.594 12.1924 78.572 11.7841 78.1747 11.7841C77.9982 11.7841 77.7775 11.8062 77.5126 11.8503C77.2478 11.8945 76.9609 12.0159 76.652 12.2145C76.343 12.4131 76.012 12.7331 75.6589 13.1745C75.5706 13.2628 75.4602 13.3069 75.3278 13.3069C75.2175 13.2848 75.1402 13.1966 75.0961 13.0421C75.0961 12.8876 75.1402 12.7 75.2285 12.4793C75.3389 12.2366 75.4602 12.0048 75.5926 11.7841C75.7471 11.5414 75.8795 11.3538 75.9899 11.2214C76.3871 10.7138 76.8947 10.3055 77.5126 9.99655C78.1526 9.68759 78.903 9.52207 79.7637 9.5C80.1168 9.5 80.4037 9.59931 80.6244 9.79793C80.8671 9.97448 81.0326 10.2062 81.1209 10.4931C81.2092 10.78 81.1871 11.089 81.0547 11.42L79.0354 16.6172C78.9692 16.7717 79.0023 16.86 79.1347 16.8821C79.2671 16.9041 79.3664 16.849 79.4326 16.7166C80.2933 15.2379 81.1651 13.9579 82.0478 12.8766C82.9306 11.7952 83.7913 10.9676 84.6299 10.3938C85.4906 9.79793 86.2961 9.5 87.0464 9.5C87.6423 9.5 88.1168 9.69862 88.4699 10.0959C88.8451 10.471 89.0658 10.9566 89.132 11.5524C89.1982 12.1262 89.0878 12.7662 88.8009 13.4724L85.954 20.1924C85.623 20.9428 85.6671 21.3179 86.0864 21.3179C86.3071 21.3179 86.583 21.2297 86.914 21.0531C87.2671 20.8766 87.6092 20.6669 87.9402 20.4241C88.2933 20.1814 88.6023 19.9497 88.8671 19.729C89.154 19.5083 89.3416 19.3538 89.4299 19.2655C89.4961 19.2214 89.5513 19.1772 89.5954 19.1331C89.6395 19.089 89.6837 19.0669 89.7278 19.0669C89.794 19.0669 89.8602 19.1 89.9264 19.1662C89.9926 19.2324 90.0258 19.3097 90.0258 19.3979C90.0258 19.6628 89.9485 19.9055 89.794 20.1262C89.1761 20.8324 88.514 21.4724 87.8078 22.0462C87.1016 22.62 86.3733 23.0724 85.623 23.4034C84.8727 23.7345 84.1333 23.9 83.4051 23.9C83.1844 23.9 82.9526 23.8228 82.7099 23.6683C82.4892 23.5138 82.3126 23.3152 82.1802 23.0724C82.0699 22.8297 82.0699 22.5869 82.1802 22.3441C82.8423 20.7993 83.5154 19.2766 84.1995 17.7759C84.9057 16.2752 85.5568 14.7524 86.1526 13.2076C86.4395 12.4793 86.5389 11.9607 86.4506 11.6517C86.3623 11.3428 86.1747 11.1772 85.8878 11.1552C85.623 11.1552 85.3251 11.2766 84.994 11.5193C84.663 11.7621 84.2878 12.1041 83.8685 12.5455C83.4713 12.9869 83.052 13.4945 82.6106 14.0683C82.3678 14.3772 82.0368 14.8407 81.6175 15.4586C81.2202 16.0766 80.7678 16.7828 80.2602 17.5772C79.7526 18.3717 79.234 19.1993 78.7044 20.06C78.1968 20.9207 77.7113 21.7483 77.2478 22.5428C77.0051 22.9841 76.7623 23.3262 76.5195 23.569C76.2989 23.8117 76.0671 23.9331 75.8244 23.9331Z" fill="black"/>
<path d="M59.2993 23.9009C59.0345 23.9009 58.7586 23.8236 58.4717 23.6691C58.1848 23.5146 57.9531 23.3271 57.7765 23.1064C57.6 22.8636 57.5117 22.6209 57.5117 22.3781C57.5117 21.6278 57.7434 20.7671 58.2069 19.796C58.6924 18.825 59.3986 17.7657 60.3255 16.6181C61.2745 15.4484 62.4221 14.2126 63.7683 12.9105C64.8717 11.8733 65.8097 11.0788 66.5821 10.5271C67.3765 9.95327 67.9614 9.66637 68.3365 9.66637C68.7779 9.66637 69.2083 9.87603 69.6276 10.2953C69.8703 10.6043 69.9807 10.7478 69.9586 10.7257C69.9586 10.7036 69.9696 10.6926 69.9917 10.6926C70.0359 10.6926 70.069 10.6815 70.091 10.6595C70.1352 10.6374 70.1683 10.5822 70.1903 10.494C70.4552 10.0526 70.6207 9.77672 70.6869 9.66637C70.7531 9.53396 70.7752 9.46775 70.7531 9.46775C70.8634 9.24706 71.04 9.13672 71.2827 9.13672C71.5255 9.13672 71.7793 9.19189 72.0441 9.30224C72.309 9.39051 72.5297 9.51189 72.7062 9.66637C72.8828 9.79879 72.971 9.94224 72.971 10.0967C72.971 10.2071 72.9048 10.4278 72.7724 10.7588L69.2303 20.2926C68.9655 20.9767 69.0979 21.3188 69.6276 21.3188C69.9807 21.3188 70.4221 21.1312 70.9517 20.756C71.5034 20.3588 72.011 19.8843 72.4745 19.3326C72.5186 19.2884 72.5628 19.2553 72.6069 19.2333C72.651 19.2112 72.6952 19.2002 72.7393 19.2002C72.8276 19.2002 72.8938 19.2333 72.9379 19.2995C72.9821 19.3657 73.0041 19.465 73.0041 19.5974C73.0041 19.8181 72.8276 20.1712 72.4745 20.6567C72.1434 21.1422 71.7572 21.5836 71.3159 21.9809C70.6317 22.5988 69.9476 23.0733 69.2634 23.4043C68.5793 23.7353 67.9834 23.9009 67.4759 23.9009C67.211 23.9009 66.9462 23.8236 66.6814 23.6691C66.4165 23.5146 66.1959 23.3271 66.0193 23.1064C65.8428 22.8857 65.7545 22.654 65.7545 22.4112C65.7545 22.2126 65.8207 21.9588 65.9531 21.6498C65.909 21.7381 65.92 21.6829 65.9862 21.4843C66.0745 21.2857 66.1959 21.0098 66.3503 20.6567C66.5269 20.2815 66.7034 19.8953 66.88 19.4981C67.0565 19.1009 67.211 18.7478 67.3434 18.4388C67.4538 18.2402 67.4869 18.0967 67.4428 18.0084C67.4207 17.8981 67.3545 17.9091 67.2441 18.0415C65.9641 19.454 64.8496 20.6015 63.9007 21.4843C62.9517 22.345 62.1131 22.9629 61.3848 23.3381C60.6565 23.7133 59.9614 23.9009 59.2993 23.9009ZM61.749 21.3188C62.1903 21.3188 62.8634 20.9326 63.7683 20.1602C64.6731 19.3878 65.6772 18.3505 66.7807 17.0484C67.5752 16.1215 68.1931 15.2829 68.6345 14.5326C69.0979 13.7602 69.3296 13.1864 69.3296 12.8112C69.3296 12.6346 69.1641 12.4029 68.8331 12.116C68.6565 11.9836 68.48 11.8843 68.3034 11.8181C68.1269 11.7298 67.9834 11.6857 67.8731 11.6857C67.4759 11.6857 66.9462 11.8843 66.2841 12.2815C65.6441 12.6788 65.0483 13.1422 64.4965 13.6719C63.8565 14.2898 63.2496 15.0071 62.6759 15.8236C62.1021 16.6181 61.6386 17.4126 61.2855 18.2071C60.9324 18.9795 60.7559 19.6305 60.7559 20.1602C60.7559 20.5133 60.8441 20.8002 61.0207 21.0209C61.1972 21.2195 61.44 21.3188 61.749 21.3188Z" fill="black"/>
<path d="M35.0749 23.9662C34.9205 23.9662 34.7549 23.9 34.5784 23.7676C34.4239 23.6572 34.2915 23.5028 34.1811 23.3041C34.0708 23.1055 34.0156 22.8959 34.0156 22.6752C34.0156 22.5648 34.0708 22.3441 34.1811 22.0131C34.2915 21.6821 34.4349 21.2738 34.6115 20.7883L37.8225 12.6779C37.9108 12.4131 37.9108 12.1924 37.8225 12.0159C37.7342 11.8393 37.5687 11.751 37.326 11.751C37.017 11.751 36.6639 11.8283 36.2667 11.9828C35.8694 12.1152 35.3949 12.5124 34.8432 13.1745C34.7549 13.2628 34.6446 13.3069 34.5122 13.3069C34.4018 13.2848 34.3356 13.1966 34.3136 13.0421C34.3136 12.8876 34.3467 12.7 34.4129 12.4793C34.5011 12.2366 34.6115 12.0048 34.7439 11.7841C34.8763 11.5414 35.0087 11.3538 35.1411 11.2214C35.5605 10.7579 36.046 10.3607 36.5977 10.0297C37.1715 9.69862 37.8887 9.52207 38.7494 9.5C39.1246 9.5 39.4667 9.58828 39.7756 9.76483C40.0846 9.91931 40.2942 10.1731 40.4046 10.5262C40.537 10.8572 40.5039 11.2545 40.3053 11.7179L38.4184 16.4517C38.3522 16.6062 38.3632 16.6945 38.4515 16.7166C38.5618 16.7386 38.6611 16.6834 38.7494 16.551C39.6542 15.1166 40.526 13.8807 41.3646 12.8434C42.2032 11.7841 43.0198 10.9676 43.8142 10.3938C44.6308 9.79793 45.4363 9.5 46.2308 9.5C46.8046 9.5 47.268 9.67655 47.6211 10.0297C47.9742 10.3607 48.1839 10.8131 48.2501 11.3869C48.3384 11.9607 48.228 12.6117 47.9191 13.34L46.9922 15.9552C46.926 16.1097 46.948 16.1979 47.0584 16.22C47.1687 16.2421 47.268 16.1979 47.3563 16.0876C48.1949 14.7193 49.0225 13.5497 49.8391 12.5786C50.6777 11.5855 51.5053 10.8241 52.3218 10.2945C53.1605 9.76483 53.966 9.5 54.7384 9.5C55.3122 9.5 55.7646 9.67655 56.0956 10.0297C56.4267 10.3828 56.6142 10.8572 56.6584 11.4531C56.7025 12.049 56.5591 12.7441 56.228 13.5386L53.5798 20.1924C53.2708 20.9428 53.326 21.3179 53.7453 21.3179C53.966 21.3179 54.2308 21.2186 54.5398 21.02C54.8708 20.8214 55.2129 20.5786 55.566 20.2917C55.9191 20.0048 56.228 19.74 56.4929 19.4972C56.7577 19.2324 56.9342 19.0559 57.0225 18.9676C57.0887 18.9014 57.1439 18.8572 57.188 18.8352C57.2322 18.791 57.2763 18.769 57.3205 18.769C57.3867 18.769 57.4529 18.8021 57.5191 18.8683C57.5853 18.9345 57.6184 19.0117 57.6184 19.1C57.6184 19.2986 57.5742 19.4972 57.486 19.6959C57.3977 19.8945 57.2432 20.1041 57.0225 20.3248C56.206 21.2517 55.2901 22.0793 54.2749 22.8076C53.2598 23.5359 52.1894 23.9 51.0639 23.9C50.8873 23.9 50.6777 23.8228 50.4349 23.6683C50.2142 23.5359 50.0377 23.3483 49.9053 23.1055C49.7729 22.8628 49.7618 22.62 49.8722 22.3772L53.9439 12.4462C54.1205 12.0269 54.1205 11.7179 53.9439 11.5193C53.7894 11.2986 53.6018 11.1772 53.3811 11.1552C53.0501 11.1331 52.6198 11.3207 52.0901 11.7179C51.5605 12.1152 50.9756 12.7441 50.3356 13.6048C49.9605 14.0903 49.486 14.7634 48.9122 15.6241C48.3384 16.4848 47.7425 17.4117 47.1246 18.4048C46.5287 19.3759 45.977 20.3028 45.4694 21.1855C45.1384 21.8034 44.7963 22.3221 44.4432 22.7414C44.0901 23.1386 43.7701 23.4366 43.4832 23.6352C43.1963 23.8559 42.9536 23.9662 42.7549 23.9662C42.6225 23.9662 42.4791 23.9 42.3246 23.7676C42.1701 23.6572 42.0377 23.5248 41.9274 23.3703C41.8391 23.1938 41.7949 23.0283 41.7949 22.8738C41.7949 22.7414 41.8501 22.4876 41.9605 22.1124C42.0929 21.7372 42.2474 21.2848 42.4239 20.7552L45.668 12.3469C45.8667 11.8834 45.8667 11.5634 45.668 11.3869C45.4915 11.1883 45.3149 11.0779 45.1384 11.0559C44.8073 11.0338 44.366 11.2324 43.8142 11.6517C43.2625 12.071 42.6336 12.7331 41.9274 13.6379C41.6405 14.0131 41.2984 14.4986 40.9011 15.0945C40.526 15.6683 40.1287 16.3083 39.7094 17.0145C39.2901 17.6986 38.8708 18.4048 38.4515 19.1331C38.0322 19.8393 37.646 20.5124 37.2929 21.1524C36.7853 22.0793 36.366 22.7855 36.0349 23.271C35.7039 23.7345 35.3839 23.9662 35.0749 23.9662Z" fill="black"/>
<path d="M25.6103 23.9007C25.2352 23.9007 24.871 23.7352 24.5179 23.4041C24.1648 23.051 23.9883 22.6869 23.9883 22.3117C23.9883 22.1572 24.0214 21.9917 24.0876 21.8152L30.1124 4.36965C30.289 3.90621 30.3772 3.53103 30.3772 3.24414C30.3772 2.93517 30.311 2.67034 30.1786 2.44966C30.0904 2.29517 29.9579 2.14069 29.7814 1.98621C29.6269 1.83172 29.4393 1.71034 29.2186 1.62207C29.0641 1.55586 28.9538 1.47862 28.8876 1.39034C28.8214 1.30207 28.8214 1.22483 28.8876 1.15862C29.0641 1.07034 29.2628 0.993102 29.4835 0.926896C29.7041 0.83862 29.9138 0.761379 30.1124 0.695171C30.3331 0.628964 30.5097 0.584826 30.6421 0.562757C30.951 0.474481 31.3372 0.386205 31.8007 0.297929C32.2641 0.209654 32.6945 0.143448 33.0917 0.099309C33.489 0.0331029 33.7538 0 33.8862 0C33.9966 0 34.0848 0.0551721 34.151 0.165517C34.2393 0.253792 34.2835 0.386205 34.2835 0.562757C34.2614 0.695171 34.2172 0.860687 34.151 1.05931C34.1069 1.25793 34.0517 1.45655 33.9855 1.65517L27.5303 20.0938C27.4862 20.2483 27.4531 20.3917 27.431 20.5241C27.409 20.6566 27.3979 20.7779 27.3979 20.8883C27.3979 21.2193 27.5193 21.3848 27.7621 21.3848C28.0269 21.3848 28.3579 21.2414 28.7552 20.9545C29.1745 20.6455 29.5828 20.2814 29.98 19.8621C30.3993 19.4207 30.7414 19.0234 31.0062 18.6703C31.1166 18.5379 31.2379 18.4166 31.3703 18.3062C31.5028 18.1738 31.6021 18.1076 31.6683 18.1076C31.7786 18.1076 31.8448 18.1628 31.8669 18.2731C31.889 18.3614 31.9 18.4607 31.9 18.571C31.9 18.9903 31.7455 19.4428 31.4366 19.9283C31.1497 20.3917 30.7524 20.8662 30.2448 21.3517C29.7372 21.8152 29.1966 22.2455 28.6228 22.6428C28.071 23.0179 27.5193 23.3159 26.9676 23.5366C26.4379 23.7793 25.9855 23.9007 25.6103 23.9007Z" fill="black"/>
<path d="M0.761379 23.6021C0.518621 23.6021 0.342069 23.569 0.231724 23.5028C0.0993102 23.4366 0.0220689 23.3152 0 23.1387C0 22.9401 0.0993103 22.7966 0.297931 22.7083C0.496552 22.598 0.750345 22.5097 1.05931 22.4435C1.61103 22.289 2.15172 22.1014 2.68138 21.8808C3.21103 21.638 3.70759 21.3621 4.17103 21.0532C4.65655 20.7221 5.07586 20.358 5.42897 19.9608C6.99586 18.2173 8.46345 16.518 9.83172 14.8628C11.2 13.2077 12.5352 11.5635 13.8372 9.93042C15.1393 8.27524 16.4634 6.62007 17.8097 4.9649C18.1186 4.58973 18.3834 4.23662 18.6041 3.90559C18.8248 3.57455 19.0124 3.30973 19.1669 3.11111C19.3214 2.91249 19.4428 2.81318 19.531 2.81318C20.0386 2.81318 20.4248 2.74697 20.6897 2.61456C20.9766 2.48214 21.2745 2.27249 21.5834 1.98559C21.9145 1.67662 22.1683 1.45593 22.3448 1.32352C22.5434 1.16904 22.709 1.0918 22.8414 1.0918C22.9959 1.0918 23.0952 1.21318 23.1393 1.45593C23.1834 1.67662 23.1503 2.01869 23.04 2.48214L19.6634 19.4973C19.4648 20.4463 19.4759 21.1415 19.6966 21.5828C19.9393 22.0242 20.4028 22.3332 21.0869 22.5097C21.4179 22.598 21.6607 22.6863 21.8152 22.7746C21.9917 22.8408 22.08 22.9621 22.08 23.1387C22.08 23.2932 21.9917 23.4035 21.8152 23.4697C21.6386 23.5359 21.3848 23.569 21.0538 23.569C20.7228 23.569 20.3034 23.547 19.7959 23.5028C19.2883 23.4808 18.7586 23.4587 18.2069 23.4366C17.6772 23.4146 17.1697 23.4035 16.6841 23.4035C16.2869 23.4035 15.8455 23.4035 15.36 23.4035C14.8966 23.4035 14.4331 23.4146 13.9697 23.4366C13.5283 23.4587 13.1531 23.4697 12.8441 23.4697C12.3807 23.4697 12.1269 23.3263 12.0828 23.0394C12.0828 22.8628 12.171 22.7194 12.3476 22.609C12.5241 22.4766 12.7448 22.3883 13.0097 22.3442C13.6717 22.2339 14.2014 22.1015 14.5986 21.947C14.9959 21.7704 15.3048 21.5277 15.5255 21.2187C15.7683 20.8877 15.9559 20.4352 16.0883 19.8615L17.1145 15.889C17.1807 15.6242 17.1255 15.4256 16.949 15.2932C16.7945 15.1608 16.5738 15.0946 16.2869 15.0946L12.1159 15.1608C11.8069 15.1608 11.5531 15.2049 11.3545 15.2932C11.1779 15.3815 11.0124 15.5359 10.8579 15.7566L7.84552 19.6959C7.40414 20.2697 7.15034 20.7332 7.08414 21.0863C7.04 21.4394 7.11724 21.7042 7.31586 21.8808C7.53655 22.0573 7.82345 22.2008 8.17655 22.3111C8.39724 22.3773 8.58483 22.4766 8.73931 22.609C8.91586 22.7194 9.00414 22.8628 9.00414 23.0394C9.00414 23.1939 8.90483 23.3042 8.70621 23.3704C8.52965 23.4366 8.30897 23.4697 8.04414 23.4697C7.62483 23.4697 7.16138 23.4587 6.65379 23.4366C6.16828 23.4146 5.62759 23.4035 5.03172 23.4035C4.34759 23.4035 3.60828 23.4366 2.81379 23.5028C2.01931 23.569 1.33517 23.6021 0.761379 23.6021ZM13.1752 13.9028L16.8828 13.8697C17.1034 13.8697 17.269 13.8146 17.3793 13.7042C17.5117 13.5939 17.611 13.3952 17.6772 13.1083L19.2662 5.85869C19.3103 5.638 19.3324 5.47249 19.3324 5.36214C19.3324 5.22973 19.2772 5.16352 19.1669 5.16352C19.1007 5.16352 19.0124 5.18559 18.9021 5.22973C18.8138 5.27387 18.7145 5.37318 18.6041 5.52766L12.6786 13.2077C12.5021 13.4283 12.4138 13.6049 12.4138 13.7373C12.4138 13.8477 12.6676 13.9028 13.1752 13.9028Z" fill="black"/>
</svg>
