<svg width="346" height="70" viewBox="0 0 346 70" fill="none" xmlns="http://www.w3.org/2000/svg">
<path d="M0 68.9595L0.596191 65.283L5.86255 63.8918L37.1626 12.2219L43.522 8.84351L53.5579 63.8918L58.228 65.283L57.2344 68.9595H37.4607L38.0569 65.283L44.4163 63.8918L41.8328 49.0864L41.3359 46.0061L36.467 18.8794L38.7524 17.4883L22.3572 46.0061L20.5686 48.9871L12.1226 63.8918L17.8857 65.283L16.9915 68.9595H0ZM17.7864 50.5769L18.78 45.3105C20.0387 45.3768 21.7941 45.443 24.0464 45.5093C26.2987 45.5755 28.9815 45.6086 32.095 45.6086C35.2084 45.6086 37.8913 45.5755 40.1436 45.5093C42.3958 45.443 44.1182 45.3768 45.3105 45.3105L44.2175 50.4775C41.899 50.4775 39.6136 50.4444 37.3613 50.3782C35.1753 50.3119 33.0886 50.2788 31.1013 50.2788C29.114 50.2788 27.0273 50.3119 24.8413 50.3782C22.6553 50.4444 20.3036 50.5107 17.7864 50.5769ZM69.4563 69.7544C68.1977 69.7544 67.2371 69.3901 66.5747 68.6614C65.9123 67.9327 65.5811 67.0053 65.5811 65.8792C65.5811 65.1505 65.6804 64.1899 65.8792 62.9976C66.0779 61.8052 66.4422 60.0828 66.9722 57.8306C67.5021 55.5783 68.2308 52.5311 69.1582 48.689L78.6973 8.04858L71.543 7.05493L72.1392 4.27271L86.5471 0L88.137 1.39111C87.342 4.30583 86.5802 7.25366 85.8516 10.2346C85.1229 13.2156 84.2948 16.6271 83.3674 20.4692L75.8157 51.6699C75.4182 53.1273 75.0539 54.684 74.7227 56.3401C74.3914 57.9962 74.0933 59.5198 73.8284 60.9109C73.6296 62.2358 73.4972 63.2957 73.4309 64.0906C74.9545 63.2957 76.3456 62.302 77.6042 61.1096C78.9291 59.851 80.254 58.3936 81.5789 56.7375L83.9636 59.6191C82.3075 61.6727 80.6183 63.4613 78.896 64.9849C77.1737 66.5085 75.5176 67.7008 73.9277 68.562C72.3379 69.3569 70.8474 69.7544 69.4563 69.7544ZM143.285 69.7544C142.026 69.7544 141.032 69.3901 140.304 68.6614C139.641 67.8665 139.31 66.8397 139.31 65.5811C139.31 64.6536 139.575 63.13 140.105 61.0103C140.635 58.8905 141.297 56.4726 142.092 53.7566C142.887 51.0406 143.649 48.3246 144.378 45.6086C145.173 42.8927 145.835 40.4748 146.365 38.355C146.895 36.1689 147.16 34.6122 147.16 33.6848C147.16 32.3599 146.564 31.6975 145.371 31.6975C144.113 31.6975 142.655 32.4593 140.999 33.9829C139.343 35.5065 137.588 37.5932 135.733 40.2429C133.878 42.8264 132.056 45.7411 130.268 48.9871C128.545 52.233 126.989 55.5783 125.598 59.0229C124.207 62.4676 123.147 65.7798 122.418 68.9595H114.866C115.595 66.7072 116.324 64.1899 117.052 61.4077C117.847 58.6255 118.609 55.8101 119.338 52.9617C120.133 50.047 120.828 47.2979 121.424 44.7144C122.021 42.0646 122.484 39.7792 122.815 37.8582C123.213 35.8708 123.412 34.4797 123.412 33.6848C123.412 32.3599 122.815 31.6975 121.623 31.6975C120.364 31.6975 118.907 32.4593 117.251 33.9829C115.595 35.5065 113.839 37.5932 111.985 40.2429C110.13 42.8264 108.341 45.7411 106.619 48.9871C104.897 52.233 103.34 55.5783 101.949 59.0229C100.558 62.4676 99.4977 65.7798 98.769 68.9595H91.1179C92.2441 65.3823 93.3371 61.7058 94.397 57.9299C95.4569 54.0878 96.3843 50.4113 97.1792 46.9004C97.9741 43.3895 98.6034 40.2429 99.0671 37.4607C99.5308 34.6785 99.7627 32.5587 99.7627 31.1013C98.3053 31.8962 96.9142 32.923 95.5894 34.1816C94.2645 35.374 92.9396 36.9307 91.6147 38.8518L89.3293 35.6721C90.9854 33.6186 92.6746 31.83 94.397 30.3064C96.1193 28.7828 97.7754 27.5904 99.3652 26.7292C100.955 25.8681 102.412 25.4375 103.737 25.4375C104.996 25.4375 105.89 25.835 106.42 26.6299C107.016 27.3586 107.314 28.3853 107.314 29.7102C107.314 30.8363 107.149 32.4262 106.818 34.4797C106.553 36.467 106.023 39.0837 105.228 42.3296C104.433 45.5755 103.34 49.6495 101.949 54.5515H100.955C102.28 50.9744 103.837 47.4635 105.625 44.0188C107.414 40.5079 109.368 37.3613 111.488 34.5791C113.674 31.7969 115.893 29.5777 118.145 27.9216C120.464 26.2655 122.749 25.4375 125.001 25.4375C126.923 25.4375 128.446 26.0006 129.572 27.1267C130.698 28.1866 131.261 29.6771 131.261 31.5981C131.261 32.7905 131.03 34.4135 130.566 36.467C130.168 38.4543 129.506 40.9385 128.579 43.9194C127.717 46.9004 126.558 50.4444 125.101 54.5515H124.604C125.929 50.9744 127.486 47.4635 129.274 44.0188C131.129 40.5741 133.116 37.4607 135.236 34.6785C137.422 31.8962 139.641 29.6771 141.894 28.021C144.212 26.2987 146.464 25.4375 148.65 25.4375C150.638 25.4375 152.194 26.0006 153.321 27.1267C154.447 28.1866 155.01 29.6771 155.01 31.5981C155.01 32.658 154.745 34.281 154.215 36.467C153.685 38.6531 153.022 41.1041 152.228 43.8201C151.499 46.5361 150.737 49.252 149.942 51.968C149.147 54.684 148.485 57.135 147.955 59.321C147.425 61.4408 147.16 63.0307 147.16 64.0906C148.617 63.2957 150.008 62.302 151.333 61.1096C152.658 59.851 153.983 58.3936 155.308 56.7375L157.693 59.6191C156.037 61.6727 154.347 63.4613 152.625 64.9849C150.903 66.5085 149.247 67.7008 147.657 68.562C146.067 69.3569 144.61 69.7544 143.285 69.7544ZM171.405 69.7544C169.153 69.7544 167.397 68.827 166.139 66.9722C164.88 65.0511 164.251 62.6001 164.251 59.6191C164.251 54.9159 165.013 50.5107 166.536 46.4036C168.126 42.2965 170.213 38.6862 172.796 35.5728C175.38 32.3931 178.195 29.9089 181.242 28.1204C184.356 26.3318 187.403 25.4375 190.384 25.4375C192.172 25.4375 193.729 25.9012 195.054 26.8286C196.379 27.6898 197.704 28.9153 199.029 30.5051L197.041 33.6848C195.981 32.4924 194.69 31.6313 193.166 31.1013C191.642 30.5714 190.119 30.3064 188.595 30.3064C186.475 30.3064 184.455 31.0682 182.534 32.5918C180.613 34.0492 178.924 36.0696 177.466 38.6531C176.009 41.1703 174.85 44.085 173.989 47.3972C173.127 50.7094 172.697 54.1872 172.697 57.8306C172.697 59.5529 172.862 60.9109 173.194 61.9045C173.591 62.8319 174.22 63.2957 175.082 63.2957C176.141 63.2957 177.533 62.4676 179.255 60.8115C181.043 59.0892 182.965 56.7707 185.018 53.856C187.072 50.875 189.059 47.4966 190.98 43.7207C192.901 39.9448 194.557 35.9371 195.948 31.6975L196.942 29.7102L200.718 26.2324H204.99C203.864 29.8096 202.771 33.5192 201.711 37.3613C200.652 41.1372 199.724 44.7806 198.929 48.2915C198.134 51.8024 197.505 54.949 197.041 57.7312C196.578 60.4472 196.346 62.567 196.346 64.0906C197.803 63.2957 199.194 62.302 200.519 61.1096C201.844 59.851 203.169 58.3936 204.494 56.7375L206.878 59.6191C205.222 61.6727 203.533 63.4613 201.811 64.9849C200.088 66.5085 198.432 67.7008 196.843 68.562C195.253 69.3569 193.762 69.7544 192.371 69.7544C191.112 69.7544 190.185 69.3901 189.589 68.6614C188.993 67.8665 188.695 66.8397 188.695 65.5811C188.695 64.3887 188.86 62.7988 189.191 60.8115C189.523 58.8242 190.086 56.2076 190.881 52.9617C191.676 49.6495 192.769 45.5424 194.16 40.6404H195.253C193.199 46.4036 190.781 51.4712 187.999 55.8433C185.217 60.2153 182.368 63.6269 179.454 66.0779C176.539 68.5289 173.856 69.7544 171.405 69.7544ZM242.749 69.7544C241.491 69.7544 240.497 69.3901 239.768 68.6614C239.106 67.8665 238.775 66.8397 238.775 65.5811C238.775 64.6536 239.04 63.13 239.57 61.0103C240.1 58.8905 240.762 56.4726 241.557 53.7566C242.352 51.0406 243.114 48.3246 243.842 45.6086C244.637 42.8927 245.3 40.4748 245.83 38.355C246.36 36.1689 246.625 34.6122 246.625 33.6848C246.625 32.3599 245.962 31.6975 244.637 31.6975C243.246 31.6975 241.656 32.4593 239.868 33.9829C238.145 35.5065 236.324 37.5932 234.403 40.2429C232.548 42.8264 230.726 45.7411 228.938 48.9871C227.215 52.233 225.658 55.5783 224.267 59.0229C222.876 62.4676 221.816 65.7798 221.088 68.9595H213.437C214.563 65.3823 215.656 61.7058 216.716 57.9299C217.775 54.0878 218.703 50.4113 219.498 46.9004C220.293 43.3895 220.922 40.2429 221.386 37.4607C221.849 34.6785 222.081 32.5587 222.081 31.1013C220.624 31.8962 219.233 32.923 217.908 34.1816C216.583 35.374 215.258 36.9307 213.933 38.8518L211.648 35.6721C213.304 33.6186 214.993 31.83 216.716 30.3064C218.438 28.7828 220.094 27.5904 221.684 26.7292C223.274 25.8681 224.731 25.4375 226.056 25.4375C227.315 25.4375 228.209 25.835 228.739 26.6299C229.335 27.3586 229.633 28.3853 229.633 29.7102C229.633 30.8363 229.467 32.4262 229.136 34.4797C228.871 36.467 228.341 39.0837 227.546 42.3296C226.751 45.5755 225.658 49.6495 224.267 54.5515H223.274C224.532 50.9744 226.056 47.4635 227.844 44.0188C229.699 40.5741 231.72 37.4607 233.906 34.6785C236.158 31.8962 238.477 29.6771 240.861 28.021C243.312 26.2987 245.763 25.4375 248.214 25.4375C250.202 25.4375 251.725 26.0006 252.785 27.1267C253.911 28.1866 254.474 29.7102 254.474 31.6975C254.474 32.7574 254.209 34.3804 253.679 36.5664C253.149 38.6862 252.487 41.1041 251.692 43.8201C250.963 46.5361 250.202 49.252 249.407 51.968C248.678 54.684 248.049 57.135 247.519 59.321C246.989 61.4408 246.724 63.0307 246.724 64.0906C248.181 63.2957 249.539 62.302 250.798 61.1096C252.123 59.851 253.448 58.3936 254.772 56.7375L257.157 59.6191C255.501 61.6727 253.812 63.4613 252.09 64.9849C250.367 66.5085 248.711 67.7008 247.121 68.562C245.531 69.3569 244.074 69.7544 242.749 69.7544ZM270.77 69.7544C268.518 69.7544 266.763 68.827 265.504 66.9722C264.245 65.0511 263.616 62.6001 263.616 59.6191C263.616 54.9159 264.378 50.5107 265.901 46.4036C267.491 42.2965 269.578 38.6862 272.161 35.5728C274.745 32.3931 277.56 29.9089 280.607 28.1204C283.721 26.3318 286.768 25.4375 289.749 25.4375C291.538 25.4375 293.094 25.9012 294.419 26.8286C295.744 27.6898 297.069 28.9153 298.394 30.5051L296.406 33.6848C295.347 32.4924 294.055 31.6313 292.531 31.1013C291.008 30.5714 289.484 30.3064 287.96 30.3064C285.841 30.3064 283.82 31.0682 281.899 32.5918C279.978 34.0492 278.289 36.0696 276.832 38.6531C275.374 41.1703 274.215 44.085 273.354 47.3972C272.493 50.7094 272.062 54.1872 272.062 57.8306C272.062 59.5529 272.228 60.9109 272.559 61.9045C272.956 62.8319 273.586 63.2957 274.447 63.2957C275.507 63.2957 276.898 62.4676 278.62 60.8115C280.409 59.0892 282.33 56.7707 284.383 53.856C286.437 50.875 288.424 47.4966 290.345 43.7207C292.266 39.9448 293.922 35.9371 295.313 31.6975L296.307 29.7102L300.083 26.2324H304.356C303.23 29.8096 302.137 33.5192 301.077 37.3613C300.017 41.1372 299.089 44.7806 298.294 48.2915C297.5 51.8024 296.87 54.949 296.406 57.7312C295.943 60.4472 295.711 62.567 295.711 64.0906C297.168 63.2957 298.559 62.302 299.884 61.1096C301.209 59.851 302.534 58.3936 303.859 56.7375L306.244 59.6191C304.588 61.6727 302.898 63.4613 301.176 64.9849C299.454 66.5085 297.798 67.7008 296.208 68.562C294.618 69.3569 293.127 69.7544 291.736 69.7544C290.478 69.7544 289.55 69.3901 288.954 68.6614C288.358 67.8665 288.06 66.8397 288.06 65.5811C288.06 64.3887 288.225 62.7988 288.557 60.8115C288.888 58.8242 289.451 56.2076 290.246 52.9617C291.041 49.6495 292.134 45.5424 293.525 40.6404H294.618C292.564 46.4036 290.146 51.4712 287.364 55.8433C284.582 60.2153 281.734 63.6269 278.819 66.0779C275.904 68.5289 273.221 69.7544 270.77 69.7544ZM332.874 30.207C330.82 30.207 328.8 31.1344 326.812 32.9893C324.891 34.8441 323.301 37.4607 322.043 40.8391C320.85 44.1513 320.254 48.0597 320.254 52.5642C320.32 56.0089 321.115 58.6917 322.639 60.6128C324.163 62.4676 326.117 63.395 328.501 63.395C329.826 63.395 331.516 62.8651 333.569 61.8052C335.689 60.7453 337.776 58.8905 339.829 56.2407L342.214 59.5198C339.895 62.7657 337.212 65.283 334.165 67.0715C331.184 68.8601 328.535 69.7544 326.216 69.7544C323.434 69.7544 320.95 69.1582 318.764 67.9658C316.578 66.7072 314.855 64.9517 313.597 62.6995C312.404 60.3809 311.808 57.665 311.808 54.5515C311.808 50.9744 312.404 47.4635 313.597 44.0188C314.855 40.5079 316.578 37.3613 318.764 34.5791C320.95 31.7969 323.533 29.5777 326.514 27.9216C329.561 26.2655 332.874 25.4375 336.451 25.4375C339.1 25.4375 341.22 25.9343 342.81 26.928C344.466 27.9216 345.294 29.3459 345.294 31.2007C345.294 32.0618 345.095 32.923 344.698 33.7842C344.367 34.5791 343.837 35.2747 343.108 35.8708C341.386 34.0823 339.63 32.6912 337.842 31.6975C336.053 30.7039 334.397 30.207 332.874 30.207Z" fill="black"/>
</svg>
