<svg width="246" height="36" viewBox="0 0 246 36" fill="none" xmlns="http://www.w3.org/2000/svg">
<path d="M245.802 4.3335C245.666 4.67338 245.377 4.9113 244.936 5.04726C244.528 5.14922 244.154 5.13223 243.814 4.99627C243.304 4.72437 242.811 4.46945 242.336 4.23154C241.758 3.95963 241.095 3.82367 240.347 3.82367C238.002 3.82367 235.844 4.57142 233.872 6.06691L233.414 7.03558L230.711 9.3298C230.236 9.9076 229.369 11.1822 228.111 13.1535C226.888 15.3627 226.276 17.7589 226.276 20.3421C226.276 21.0558 226.548 22.1604 227.092 23.6559L228.519 24.8285L228.978 25.6952L229.743 26.7149C232.326 27.7345 234.297 28.2444 235.657 28.2444C236.269 28.2444 236.863 28.1424 237.441 27.9385L239.022 27.1737L240.143 26.9698L241.367 26.256L242.285 26.7149L242.488 27.4796L243.1 28.2444C242.862 29.7059 242.454 30.4366 241.877 30.4366H240.857C240.551 30.5386 239.905 30.7765 238.92 31.1504C237.73 31.4903 236.507 31.6602 235.249 31.6602C234.161 31.6602 232.343 31.3373 229.794 30.6915L228.315 30.4366L226.276 28.4993C224.033 26.1541 222.911 23.384 222.911 20.1891C222.911 17.538 224.135 13.9862 226.582 9.53373L228.876 5.86298L229.743 5.30217C230.083 4.9283 230.661 4.31651 231.476 3.4668C233.957 1.42749 236.846 0.407837 240.143 0.407837C242.658 0.407837 244.494 1.30853 245.649 3.10992C245.887 3.58575 245.938 3.99362 245.802 4.3335Z" fill="black"/>
<path d="M214.478 30.5895C214.478 31.0653 214.155 31.7111 213.509 32.5268C212.864 33.3086 212.337 33.6994 211.929 33.6994C211.623 33.6994 211.164 33.4105 210.552 32.8327L210.094 31.4562L210.247 29.4169L209.686 27.9384C209.414 27.2586 209.04 26.188 208.564 24.7265C207.782 21.0557 206.763 19.2204 205.505 19.2204C205.301 19.2204 204.367 19.3903 202.701 19.7302C201.036 20.0701 199.727 20.24 198.775 20.24C197.008 20.24 195.92 20.6989 195.513 21.6165L194.748 23.299L194.493 24.6755L193.83 25.7971L193.422 27.1736L192.046 28.8561L190.771 32.2209C190.635 32.5948 190.363 32.9177 189.955 33.1896C189.548 33.4615 189.225 33.5975 188.987 33.5975C188.613 33.5975 188.205 33.3765 187.763 32.9347C187.355 32.4589 187.151 31.983 187.151 31.5072C187.151 30.5555 187.814 29.06 189.14 27.0207C189.276 26.3069 189.582 25.2193 190.057 23.7578C190.431 22.8741 191.043 21.7355 191.893 20.342L194.34 15.3457L195.818 11.0631L196.634 9.6866L198.47 5.40405C198.843 4.48637 199.251 3.58567 199.693 2.70197C200.169 1.78428 200.815 1.32544 201.63 1.32544C202.344 1.32544 202.905 1.56336 203.313 2.0392C203.721 2.51504 204.197 3.43272 204.74 4.79226L208.36 13.5613L208.666 15.3967L211.266 21.2597C211.538 21.5656 211.844 22.0414 212.184 22.6872C212.354 23.7748 212.711 25.2873 213.254 27.2246C214.07 29.094 214.478 30.2156 214.478 30.5895ZM205.199 14.377C205.199 13.9691 204.995 13.2214 204.587 12.1338L204.027 11.2671L203.517 9.43168C203.415 8.54798 202.888 8.10613 201.936 8.10613C201.223 8.10613 200.458 8.92186 199.642 10.5533C198.86 12.0488 198.47 13.2554 198.47 14.1731C198.47 15.4986 198.945 16.1444 199.897 16.1104L203.721 15.9575C203.959 15.9575 204.265 15.8045 204.638 15.4986C205.012 15.1927 205.199 14.8189 205.199 14.377Z" fill="black"/>
<path d="M179.342 8.36108L177.354 14.1731V15.4477L176.079 18.7615L175.417 22.1264L173.275 26.307L172.918 28.4482L172.256 29.3659L171.083 31.7621C170.267 33.4276 169.605 34.2603 169.095 34.2603C168.653 34.2603 168.262 34.0393 167.922 33.5975C167.616 33.1557 167.327 32.7138 167.055 32.2719L162.314 26.0011L160.224 24.0128L158.592 21.2597L157.165 19.5773L156.859 18.4557L156.247 17.436L155.329 16.6713L154.361 15.4477L153.698 16.4673L152.678 20.8518L152.423 24.4716L151.302 29.8248L150.027 32.8837C149.551 33.0877 149.177 33.1896 148.906 33.1896C148.634 33.1896 148.362 32.8498 148.09 32.17V30.7425L148.753 29.0091L148.702 27.9384C149.177 25.3553 149.687 21.9055 150.231 17.5889L150.333 14.377C150.333 13.8332 150.486 13.2554 150.792 12.6436C151.098 12.0318 151.251 11.624 151.251 11.42C151.319 10.5703 151.336 9.36374 151.302 7.80027C151.914 6.71264 152.491 6.16883 153.035 6.16883C153.375 6.16883 153.817 6.33877 154.361 6.67865L155.278 10.0945L160.02 17.7419C160.632 18.7276 161.413 19.7472 162.365 20.8009C163.996 22.6362 164.88 23.6389 165.016 23.8088C165.594 24.6925 166.155 25.5592 166.699 26.4089C167.446 27.4626 168.194 27.9894 168.942 27.9894C169.622 27.9894 170.046 27.2077 170.216 25.6442C170.25 25.2703 170.386 24.8965 170.624 24.5226C171.032 23.8428 171.27 23.4519 171.338 23.35C172.12 21.7525 173.105 18.8125 174.295 14.53L174.703 12.2358L175.213 11.0122C175.247 10.7063 175.332 10.1115 175.468 9.22779C175.603 8.616 175.875 7.69831 176.283 6.47472C176.385 5.01322 177.082 4.28247 178.374 4.28247C179.223 4.28247 179.648 5.04721 179.648 6.57669C179.648 7.22247 179.546 7.81727 179.342 8.36108Z" fill="black"/>
<path d="M139.25 30.5895C139.25 31.0653 138.927 31.7111 138.281 32.5268C137.635 33.3086 137.108 33.6994 136.7 33.6994C136.395 33.6994 135.936 33.4105 135.324 32.8327L134.865 31.4562L135.018 29.4169L134.457 27.9384C134.185 27.2586 133.811 26.188 133.336 24.7265C132.554 21.0557 131.534 19.2204 130.277 19.2204C130.073 19.2204 129.138 19.3903 127.473 19.7302C125.807 20.0701 124.499 20.24 123.547 20.24C121.779 20.24 120.692 20.6989 120.284 21.6165L119.519 23.299L119.264 24.6755L118.602 25.7971L118.194 27.1736L116.817 28.8561L115.543 32.2209C115.407 32.5948 115.135 32.9177 114.727 33.1896C114.319 33.4615 113.996 33.5975 113.758 33.5975C113.384 33.5975 112.976 33.3765 112.535 32.9347C112.127 32.4589 111.923 31.983 111.923 31.5072C111.923 30.5555 112.586 29.06 113.911 27.0207C114.047 26.3069 114.353 25.2193 114.829 23.7578C115.203 22.8741 115.815 21.7355 116.664 20.342L119.111 15.3457L120.59 11.0631L121.406 9.6866L123.241 5.40405C123.615 4.48637 124.023 3.58567 124.465 2.70197C124.94 1.78428 125.586 1.32544 126.402 1.32544C127.116 1.32544 127.676 1.56336 128.084 2.0392C128.492 2.51504 128.968 3.43272 129.512 4.79226L133.132 13.5613L133.438 15.3967L136.038 21.2597C136.31 21.5656 136.615 22.0414 136.955 22.6872C137.125 23.7748 137.482 25.2873 138.026 27.2246C138.842 29.094 139.25 30.2156 139.25 30.5895ZM129.971 14.377C129.971 13.9691 129.767 13.2214 129.359 12.1338L128.798 11.2671L128.288 9.43168C128.186 8.54798 127.66 8.10613 126.708 8.10613C125.994 8.10613 125.229 8.92186 124.414 10.5533C123.632 12.0488 123.241 13.2554 123.241 14.1731C123.241 15.4986 123.717 16.1444 124.669 16.1104L128.492 15.9575C128.73 15.9575 129.036 15.8045 129.41 15.4986C129.784 15.1927 129.971 14.8189 129.971 14.377Z" fill="black"/>
<path d="M102.499 34.2094C102.499 34.6512 102.295 35.0421 101.887 35.382C101.513 35.7219 101.089 35.8918 100.613 35.8918C99.661 35.8918 99.0832 35.28 98.8793 34.0564L98.0636 29.1621L97.4008 27.5816L97.2988 24.4717L96.993 23.0442L97.2988 20.597L96.4831 10.8083C96.3472 9.17688 95.8713 8.36115 95.0556 8.36115C94.5798 8.36115 93.934 9.02393 93.1183 10.3495L90.7731 14.1222L88.2239 20.1891L85.7258 22.9422L83.9414 25.8482C83.3976 26.7319 82.8198 27.1738 82.208 27.1738C81.5622 27.1738 81.0184 26.511 80.5765 25.1854L79.302 21.3617L78.6902 20.546L78.3333 18.7616L77.2627 17.538C74.8495 12.5417 73.1161 10.0436 72.0624 10.0436C71.7225 10.0436 71.3827 10.3325 71.0428 10.9103C70.7029 11.4541 70.533 12.0489 70.533 12.6947C70.533 12.8646 70.6009 13.2215 70.7369 13.7653C70.9068 14.2751 70.9918 14.717 70.9918 15.0909C70.9918 15.9746 70.7199 17.1642 70.1761 18.6597L70.278 20.3421L69.9212 22.3304L70.0741 26.46L69.6153 28.1934L69.3094 32.0681C69.2074 33.2917 68.7656 33.9035 67.9838 33.9035C67.6099 33.9035 67.2361 33.7675 66.8622 33.4956C66.3864 33.1897 66.1484 32.8328 66.1484 32.425C66.1484 31.7452 66.3524 30.6746 66.7602 29.2131L66.5563 28.1424L67.1171 25.0835V20.648L67.6269 18.9655C67.7629 17.1982 67.8309 15.2608 67.8309 13.1535C67.8309 10.4005 68.1198 8.02127 68.6976 6.01595C69.2754 4.01063 69.9891 3.00798 70.8388 3.00798C71.2807 3.00798 71.8755 3.5178 72.6232 4.53746C73.201 5.31919 74.3566 6.96763 76.0901 9.48277L77.0077 10.4514L78.0784 13.2555C78.6902 14.0372 79.6588 15.3288 80.9844 17.1302C81.0864 17.2661 81.3243 17.9799 81.6982 19.2714C81.9361 20.0532 82.3609 20.444 82.9727 20.444C83.9924 20.444 85.4539 18.5067 87.3572 14.632C89.4305 10.4175 91.6738 6.03295 94.0869 1.4785C94.5968 0.492831 95.4635 0 96.6871 0C97.0949 0 97.4008 0.32289 97.6047 0.96867C97.7067 1.34254 97.8597 2.24324 98.0636 3.67075C98.4035 5.03029 98.9133 7.25653 99.5931 10.3495C99.695 10.8933 99.695 11.5901 99.5931 12.4398C99.5251 13.2895 99.5421 13.9862 99.644 14.5301C99.746 15.0739 99.9839 15.7366 100.358 16.5184L100.46 23.1971L102.244 31.9151C102.414 32.7309 102.499 33.4956 102.499 34.2094Z" fill="black"/>
<path d="M56.6624 31.2014C56.6624 32.2551 56.1356 32.7819 55.082 32.7819C54.912 32.7819 54.5211 32.6969 53.9093 32.527C53.2976 32.357 52.2779 32.2721 50.8504 32.2721C49.6268 32.2721 47.8934 32.2551 45.6502 32.2211L44.4776 32.578L41.3166 31.9662L39.3283 32.1701C38.7845 32.2381 38.4446 31.7113 38.3087 30.5896C38.2407 30.1138 38.2237 29.536 38.2577 28.8562L37.7988 26.0012L38.3087 18.3028L38.9204 16.6714C39.0904 15.0059 39.1754 13.1706 39.1754 11.1652C39.1754 8.68408 38.9374 6.50882 38.4616 4.63946L38.7675 3.16096L38.8695 2.29426C38.9374 1.64847 39.5152 1.18963 40.6029 0.917725L41.1127 1.63148L41.9284 2.09033L41.9794 3.31391C42.0814 4.02767 42.1324 4.53749 42.1324 4.84339C42.1324 5.01333 42.0984 5.54015 42.0304 6.42385C41.9624 7.30755 41.9284 8.10628 41.9284 8.82003C41.9284 8.85403 41.9964 9.85669 42.1324 11.828C42.2003 13.0516 42.1663 14.1562 42.0304 15.1419C41.8944 16.2635 41.6735 17.827 41.3676 19.8323L41.4696 23.1971L41.6735 25.4914L41.5206 26.562C42.1663 28.0235 42.7781 28.7373 43.3559 28.7033L48.4032 28.4993C48.7431 28.4993 49.2869 28.6183 50.0347 28.8562C50.7824 29.0602 51.3772 29.1621 51.8191 29.1621C52.2269 29.1621 52.7367 29.0602 53.3485 28.8562C53.9603 28.6523 54.4532 28.5503 54.827 28.5503C55.3708 28.5503 55.8127 28.8732 56.1526 29.519C56.4925 30.1308 56.6624 30.6916 56.6624 31.2014Z" fill="black"/>
<path d="M27.3267 30.5895C27.3267 31.0653 27.0038 31.7111 26.358 32.5268C25.7123 33.3086 25.1854 33.6994 24.7776 33.6994C24.4717 33.6994 24.0128 33.4105 23.401 32.8327L22.9422 31.4562L23.0951 29.4169L22.5343 27.9384C22.2624 27.2586 21.8886 26.188 21.4127 24.7265C20.631 21.0557 19.6113 19.2204 18.3538 19.2204C18.1498 19.2204 17.2151 19.3903 15.5497 19.7302C13.8843 20.0701 12.5757 20.24 11.624 20.24C9.85665 20.24 8.76902 20.6989 8.36116 21.6165L7.59642 23.299L7.3415 24.6755L6.67873 25.7971L6.27087 27.1736L4.89434 28.8561L3.61977 32.2209C3.48382 32.5948 3.21191 32.9177 2.80405 33.1896C2.39619 33.4615 2.07329 33.5975 1.83538 33.5975C1.4615 33.5975 1.05364 33.3765 0.611792 32.9347C0.203931 32.4589 0 31.983 0 31.5072C0 30.5555 0.662774 29.06 1.98832 27.0207C2.12428 26.3069 2.43017 25.2193 2.90601 23.7578C3.27988 22.8741 3.89168 21.7355 4.74139 20.342L7.18856 15.3457L8.66705 11.0631L9.48278 9.6866L11.3182 5.40405C11.692 4.48637 12.0999 3.58567 12.5417 2.70197C13.0176 1.78428 13.6634 1.32544 14.4791 1.32544C15.1928 1.32544 15.7536 1.56336 16.1615 2.0392C16.5694 2.51504 17.0452 3.43272 17.589 4.79226L21.2088 13.5613L21.5147 15.3967L24.1148 21.2597C24.3867 21.5656 24.6926 22.0414 25.0325 22.6872C25.2024 23.7748 25.5593 25.2873 26.1031 27.2246C26.9188 29.094 27.3267 30.2156 27.3267 30.5895ZM18.0479 14.377C18.0479 13.9691 17.8439 13.2214 17.4361 12.1338L16.8753 11.2671L16.3654 9.43168C16.2635 8.54798 15.7366 8.10613 14.785 8.10613C14.0712 8.10613 13.3065 8.92186 12.4908 10.5533C11.709 12.0488 11.3182 13.2554 11.3182 14.1731C11.3182 15.4986 11.794 16.1444 12.7457 16.1104L16.5694 15.9575C16.8073 15.9575 17.1132 15.8045 17.4871 15.4986C17.8609 15.1927 18.0479 14.8189 18.0479 14.377Z" fill="black"/>
</svg>
